<svg width="285" height="33" xmlns="http://www.w3.org/2000/svg"><g fill="#2C3140" fill-rule="evenodd"><path d="M12.363 25.503c-6.066-13.201 1.045-21.752.618-21.497C-4.133 14.205.601 26 .601 26c4.716-8.017 12.072.179 11.762-.497"/><path d="M14.336 26c8.236-4.811 16.2-.557 15.636-.9C11.49 13.87 17.459-.408 17.042.009c-11.628 11.645-2.936 26.124-2.706 25.99M21.419 30.431c-2.81.95-5.17 1.346-7.103 1.289 1.131-.274 2.35-.635 3.678-1.112 6.015-2.16 9.472-3.05 11.893-2.136.118.044-4.204-3.768-15.29.706-1.614.652-3.081 1.09-4.418 1.353a5.124 5.124 0 0 1-1.551-1.694c-.087-.154-.186-.187-.186-.187s.21.967 1.173 1.99c-4.327.702-7.12-.632-8.422-3.37-.09-.19-.193-.231-.193-.231s1.16 6.54 10.905 5.152c2.357.998 6.276 1.352 12.758-.592 5.73-1.718 9.023-2.422 11.335-1.677.113.037-4.024-3.057-14.58.509"/><g><path d="M44.941 19.174l.171.084c0 .101.023.19.069.27.08.134.236.266.47.394.234.13.502.244.805.345.301.102.618.183.949.245.33.06.627.092.89.092.194 0 .445-.014.752-.042.309-.028.61-.087.907-.177a2.58 2.58 0 0 0 .77-.37.732.732 0 0 0 .325-.622c0-.259-.1-.449-.299-.572-.2-.124-.462-.213-.787-.27a8.66 8.66 0 0 0-1.112-.109 35.44 35.44 0 0 1-1.275-.075c-.434-.034-.858-.09-1.275-.169a3.553 3.553 0 0 1-1.112-.395 2.193 2.193 0 0 1-.787-.757c-.2-.32-.3-.737-.3-1.253 0-.348.083-.69.25-1.027.164-.336.418-.633.76-.891s.776-.468 1.301-.63c.524-.163 1.14-.245 1.847-.245.605 0 1.13.045 1.574.135a10.834 10.834 0 0 1 1.976.572c.223.09.408.134.557.134.16 0 .274-.034.342-.1l.205.134-1.18 2.103-.171-.068a.92.92 0 0 0-.137-.386c-.091-.135-.243-.267-.454-.396a4 4 0 0 0-.744-.345 6.164 6.164 0 0 0-.924-.244 5.43 5.43 0 0 0-.992-.092c-.251 0-.51.02-.779.058-.267.04-.51.1-.727.177a1.62 1.62 0 0 0-.539.312.62.62 0 0 0-.214.479c0 .27.1.47.3.606.2.134.461.235.787.302.325.068.696.113 1.112.135.416.023.841.05 1.275.084.433.034.858.092 1.275.177.415.084.786.218 1.111.404.326.184.588.434.787.748.2.314.3.724.3 1.228 0 .584-.157 1.06-.47 1.43-.315.37-.705.662-1.173.875a5.371 5.371 0 0 1-1.514.43c-.542.072-1.047.108-1.514.108-.65 0-1.195-.036-1.634-.109a6.234 6.234 0 0 1-1.788-.555 1.041 1.041 0 0 0-.445-.126c-.08 0-.154.045-.222.134L44 21.21l.941-2.036zM64.09 18.51l-1.357-3.183-1.518 3.182h2.876zM58 21.691a.47.47 0 0 0 .331-.223 3.71 3.71 0 0 0 .234-.427l2.989-6.656a14.7 14.7 0 0 0 .202-.41.784.784 0 0 0 .09-.326c0-.114-.039-.193-.114-.24a.904.904 0 0 0-.242-.102V13h2.73v.308a1.254 1.254 0 0 0-.226.094c-.076.04-.113.123-.113.248 0 .091.019.183.056.274.038.091.095.211.17.36l3.36 6.963a.565.565 0 0 0 .218.274c.092.057.197.114.315.171V22h-2.843v-.308a.367.367 0 0 0 .162-.051c.064-.035.097-.086.097-.155 0-.113-.044-.262-.13-.444l-.614-1.266H60.73l-.581 1.214c-.108.24-.162.41-.162.513 0 .127.102.189.307.189V22H58v-.308zM74 21.692c.313 0 .47-.103.47-.309v-7.767c0-.205-.157-.308-.47-.308V13h3v.308c-.314 0-.47.103-.47.308v7.767c0 .206.156.309.47.309V22h-3v-.308zM89.693 22c0-.165-.054-.259-.162-.28a2.167 2.167 0 0 0-.417-.034H81v-.297c.341 0 .511-.099.511-.297v-7.497c0-.198-.17-.298-.511-.298V13h2.932v.297c-.318 0-.477.1-.477.298v6.572h5.659c.17 0 .31-.039.417-.115a.366.366 0 0 0 .162-.314H90V22h-.307zM95 21.692c.313 0 .47-.103.47-.309v-7.767c0-.205-.157-.308-.47-.308V13h3v.308c-.314 0-.47.103-.47.308v7.767c0 .206.156.309.47.309V22h-3v-.308zM104 21.692c.213 0 .32-.103.32-.309v-7.767c0-.205-.107-.308-.32-.308V13h2.874v.308c-.09 0-.135.057-.135.17 0 .093.112.252.337.48l4.823 5.099v-5.441c0-.205-.146-.308-.437-.308V13H114v.308c-.213 0-.32.103-.32.308v7.767c0 .206.107.309.32.309V22h-2.723v-.308c.145 0 .219-.051.219-.154 0-.08-.09-.21-.27-.393l-5.125-5.442v5.68c0 .206.128.309.386.309V22H104v-.308zM128.485 15.826l-.325-.1a.66.66 0 0 0 .033-.203c0-.168-.102-.32-.302-.454a2.93 2.93 0 0 0-.766-.345 5.905 5.905 0 0 0-1.009-.21 8.522 8.522 0 0 0-1.034-.067c-.402 0-.801.058-1.198.176-.396.118-.749.3-1.058.547-.31.247-.56.567-.749.96-.19.392-.285.868-.285 1.429 0 .55.095 1.024.285 1.422.19.398.44.72.749.967.31.247.662.429 1.058.547.397.118.796.176 1.198.176a7.95 7.95 0 0 0 1.669-.16c.494-.106.914-.22 1.263-.345V18.72h-2.085c-.152 0-.267.033-.342.1-.077.068-.126.214-.147.438h-.293v-2.153h.293c.021.19.07.311.147.362.075.05.19.075.342.075H130v.303c-.217.034-.353.073-.407.117-.054.045-.08.141-.08.287v1.9c0 .113.032.186.097.22l.227.117v.27c-.358.257-.735.47-1.131.638-.397.169-.799.3-1.206.396a7.005 7.005 0 0 1-1.221.176c-.408.023-.807.034-1.197.034-.76 0-1.453-.098-2.077-.294a4.448 4.448 0 0 1-1.604-.875 3.962 3.962 0 0 1-1.035-1.413c-.244-.555-.366-1.186-.366-1.893 0-.706.122-1.337.366-1.892a4.043 4.043 0 0 1 1.035-1.422c.445-.392.98-.692 1.604-.9a6.566 6.566 0 0 1 2.077-.311c.477 0 .934.034 1.368.101a12.94 12.94 0 0 1 1.995.462c.222.074.36.11.415.11a.348.348 0 0 0 .228-.067c.054-.045.109-.085.163-.118l.196.118-.962 2.22zM144 21.692c.313 0 .47-.103.47-.309v-7.767c0-.205-.157-.308-.47-.308V13h3v.308c-.314 0-.47.103-.47.308v7.767c0 .206.156.309.47.309V22h-3v-.308zM154 21.692c.213 0 .32-.103.32-.309v-7.767c0-.205-.107-.308-.32-.308V13h2.875v.308c-.09 0-.135.057-.135.17 0 .093.112.252.336.48l4.823 5.099v-5.441c0-.205-.145-.308-.436-.308V13H164v.308c-.213 0-.32.103-.32.308v7.767c0 .206.107.309.32.309V22h-2.723v-.308c.146 0 .22-.051.22-.154 0-.08-.091-.21-.27-.393l-5.126-5.442v5.68c0 .206.128.309.386.309V22H154v-.308zM183.871 16.764c.355 0 .658-.074.911-.222.253-.148.38-.439.38-.872 0-.434-.127-.725-.38-.873-.253-.149-.556-.223-.91-.223h-3.436v2.19h3.435zM178 22v-.308c.398 0 .597-.102.597-.308v-7.767c0-.206-.2-.309-.597-.309V13h5.677c1.033 0 1.845.203 2.436.608.591.405.887 1.092.887 2.062 0 .969-.296 1.657-.887 2.06-.591.406-1.403.609-2.436.609h-3.241v3.045c0 .206.172.308.516.308V22H178zM198.09 18.51l-1.356-3.183-1.518 3.182h2.875zM192 21.691a.47.47 0 0 0 .331-.223 3.71 3.71 0 0 0 .234-.427l2.99-6.656c.075-.149.141-.285.201-.41a.789.789 0 0 0 .089-.326c0-.114-.038-.193-.113-.24a.912.912 0 0 0-.242-.102V13h2.73v.308a1.27 1.27 0 0 0-.226.094c-.076.04-.113.123-.113.248 0 .091.018.183.056.274.038.091.095.211.17.36l3.36 6.963a.575.575 0 0 0 .218.274c.092.057.197.114.315.171V22h-2.843v-.308a.37.37 0 0 0 .162-.051.166.166 0 0 0 .096-.155c0-.113-.043-.262-.128-.444l-.615-1.266h-3.942l-.581 1.214c-.108.24-.162.41-.162.513 0 .127.102.189.307.189V22H192v-.308zM212.93 17.004c.374 0 .685-.032.935-.095.25-.062.447-.15.593-.265a.975.975 0 0 0 .312-.402c.063-.154.094-.322.094-.504 0-.183-.031-.351-.094-.505a.978.978 0 0 0-.312-.402 1.584 1.584 0 0 0-.593-.266 3.933 3.933 0 0 0-.936-.094h-2.698v2.533h2.698zm.405-4.004c.499 0 .952.049 1.356.145.407.098.754.251 1.045.462.292.211.515.485.672.821.155.337.233.75.233 1.241 0 .753-.202 1.329-.607 1.728-.407.4-.952.667-1.638.804l2.074 3.251c.072.115.159.183.257.206.1.022.19.034.273.034V22h-2.916v-.308a.531.531 0 0 0 .241-.051c.068-.035.102-.08.102-.138a.414.414 0 0 0-.063-.196 4.925 4.925 0 0 0-.187-.3l-1.716-2.668h-2.23v3.044c0 .103.033.18.101.232.068.051.19.077.366.077V22H208v-.308c.301 0 .453-.103.453-.309v-7.767c0-.206-.152-.309-.453-.309V13h5.335zM228.09 18.51l-1.356-3.183-1.518 3.182h2.875zM222 21.691a.47.47 0 0 0 .331-.223 3.71 3.71 0 0 0 .234-.427l2.99-6.656c.075-.149.141-.285.201-.41a.789.789 0 0 0 .089-.326c0-.114-.038-.193-.113-.24a.912.912 0 0 0-.242-.102V13h2.73v.308a1.27 1.27 0 0 0-.226.094c-.076.04-.113.123-.113.248 0 .091.018.183.056.274.038.091.095.211.17.36l3.36 6.963a.575.575 0 0 0 .218.274c.092.057.197.114.315.171V22h-2.843v-.308a.37.37 0 0 0 .162-.051.166.166 0 0 0 .096-.155c0-.113-.043-.262-.128-.444l-.615-1.266h-3.942l-.581 1.214c-.108.24-.162.41-.162.513 0 .127.102.189.307.189V22H222v-.308zM241.933 20.528c.529 0 .99-.045 1.384-.136.395-.092.722-.254.98-.488.26-.234.453-.545.583-.933.13-.388.194-.878.194-1.471 0-.593-.065-1.083-.194-1.472-.13-.387-.324-.698-.583-.932a2.162 2.162 0 0 0-.98-.488 6.23 6.23 0 0 0-1.384-.137h-2.619v6.057h2.619zm.675-7.528c.62 0 1.196.091 1.731.274.535.182 1 .46 1.395.83.393.37.703.838.928 1.402.225.565.338 1.23.338 1.994s-.113 1.428-.338 1.993a3.87 3.87 0 0 1-.928 1.403 3.81 3.81 0 0 1-1.395.83 5.331 5.331 0 0 1-1.731.274H237v-.308c.258 0 .389-.103.389-.309v-7.767c0-.206-.13-.309-.389-.309V13h5.608zM252 21.692c.313 0 .47-.103.47-.309v-7.767c0-.205-.157-.308-.47-.308V13h3v.308c-.314 0-.47.103-.47.308v7.767c0 .206.156.309.47.309V22h-3v-.308zM261.94 19.174l.172.084c0 .101.023.19.069.27.079.134.236.266.47.394.233.13.502.244.804.345.302.102.619.183.95.245.33.06.627.092.89.092.193 0 .444-.014.752-.042.308-.028.61-.087.907-.177.297-.09.554-.213.77-.37a.733.733 0 0 0 .325-.622c0-.259-.1-.449-.299-.572-.2-.124-.462-.213-.787-.27a8.662 8.662 0 0 0-1.112-.109 35.52 35.52 0 0 1-1.275-.075c-.434-.034-.86-.09-1.275-.169a3.553 3.553 0 0 1-1.112-.395 2.197 2.197 0 0 1-.788-.757c-.2-.32-.3-.737-.3-1.253 0-.348.084-.69.249-1.027a2.5 2.5 0 0 1 .762-.891c.342-.258.775-.468 1.3-.63.525-.163 1.14-.245 1.848-.245.605 0 1.13.045 1.574.135a11.033 11.033 0 0 1 1.977.572c.222.09.408.134.555.134.16 0 .275-.034.343-.1l.206.134-1.18 2.103-.172-.068a.92.92 0 0 0-.137-.386c-.092-.135-.242-.267-.454-.396a4.006 4.006 0 0 0-.745-.345 6.13 6.13 0 0 0-.924-.244 5.42 5.42 0 0 0-.991-.092c-.252 0-.511.02-.779.058-.268.04-.51.1-.728.177a1.622 1.622 0 0 0-.538.312.62.62 0 0 0-.214.479c0 .27.1.47.3.606.198.134.462.235.787.302.325.068.695.113 1.112.135.416.023.841.05 1.275.084.432.034.857.092 1.274.177a3.73 3.73 0 0 1 1.113.404c.325.184.587.434.787.748.198.314.299.724.299 1.228 0 .584-.157 1.06-.47 1.43-.315.37-.705.662-1.173.875a5.372 5.372 0 0 1-1.514.43c-.542.072-1.047.108-1.514.108-.65 0-1.195-.036-1.634-.109a6.235 6.235 0 0 1-1.789-.555 1.04 1.04 0 0 0-.444-.126c-.08 0-.155.045-.223.134L261 21.21l.94-2.036zM284.583 14.088a.285.285 0 0 0-.148-.261c-.098-.058-.269-.087-.512-.087h-5.63v1.961h3.406c.232 0 .411-.028.54-.087.126-.057.19-.208.19-.45h.313v2.467h-.313c0-.242-.064-.398-.19-.467-.129-.068-.308-.102-.54-.102h-3.405v2.183h5.803a.754.754 0 0 0 .426-.111.345.345 0 0 0 .164-.3H285V21h-.313c0-.158-.055-.248-.164-.268a2.309 2.309 0 0 0-.426-.032H276v-.285a.351.351 0 0 0 .217-.071c.064-.047.096-.119.096-.214v-7.18c0-.096-.032-.167-.096-.214a.351.351 0 0 0-.217-.071v-.285h7.923c.243 0 .414-.034.512-.103a.322.322 0 0 0 .148-.277h.313v2.088h-.313z"/></g></g></svg>