<?xml version="1.0" encoding="UTF-8"?>
<svg width="285px" height="33px" viewBox="0 0 285 33" version="1.1" xmlns="http://www.w3.org/2000/svg" xmlns:xlink="http://www.w3.org/1999/xlink">
    <!-- Generator: Sketch 50.2 (55047) - http://www.bohemiancoding.com/sketch -->
    <title>logo</title>
    <desc>Created with Sketch.</desc>
    <defs></defs>
    <g id="-" stroke="none" stroke-width="1" fill="none" fill-rule="evenodd">
        <g id="Fixed-menu" transform="translate(-81.000000, -20.000000)" fill="#2C3140">
            <g id="Group-39" transform="translate(81.000000, 19.000000)">
                <g id="logo" transform="translate(0.000000, 1.000000)">
                    <g id="Group-2">
                        <path d="M12.3628305,25.5031358 C6.29705199,12.3020131 13.4075357,3.75088184 12.9814344,4.00553587 C-4.1326956,14.2050297 0.600272811,26 0.600272811,26 C5.31723539,17.9830645 12.6734302,26.1786578 12.3628305,25.5031358" id="Fill-1"></path>
                        <path d="M14.3355707,25.9990725 C22.5717833,21.188865 30.5363326,25.4427001 29.9716546,25.0998619 C11.4899206,13.8713398 17.459244,-0.40812404 17.0426634,0.0089275457 C5.41383989,11.6540459 14.1061561,26.1333849 14.3355707,25.9990725" id="Fill-3"></path>
                        <path d="M21.4187138,30.4309697 C18.6084933,31.3805822 16.2485922,31.7766653 14.3162093,31.7196975 C15.4470501,31.4456242 16.6660254,31.0845292 17.9941824,30.6077044 C24.0092556,28.4483114 27.4662346,27.5583581 29.8870845,28.4720854 C30.0050357,28.5164933 25.6829351,24.7041376 14.5977137,29.1776785 C12.9827906,29.8298923 11.5156354,30.2681405 10.1791474,30.5309997 C9.5315119,30.0792945 9.01015878,29.5136538 8.62780393,28.8367689 C8.54054634,28.682911 8.44232674,28.6497172 8.44232674,28.6497172 C8.44232674,28.6497172 8.65235882,29.6168238 9.61482316,30.6391039 C5.28833769,31.3420056 2.49521795,30.0084212 1.19336983,27.2703792 C1.10304288,27.0801875 1,27.0389195 1,27.0389195 C1,27.0389195 2.15978049,33.5781032 11.9045675,32.1911396 C14.2622762,33.1891972 18.180975,33.5426666 24.6634683,31.5985849 C30.3922139,29.8805802 33.6856397,29.1767813 35.9977465,29.9222967 C36.1108744,29.9590791 31.9742509,26.8653248 21.4187138,30.4309697" id="Fill-6"></path>
                    </g>
                    <g id="Group-26" transform="translate(44.000000, 12.000000)">
                        <path d="M0.941082509,7.17414678 L1.11249002,7.25786771 C1.11249002,7.3589852 1.13516004,7.4486862 1.18050009,7.52751435 C1.26012164,7.66179402 1.41715304,7.79389912 1.65104135,7.92219873 C1.88492966,8.05158562 2.15309947,8.16629417 2.45555078,8.26741166 C2.75744916,8.36852915 3.07372366,8.45007551 3.4049272,8.5115071 C3.73557781,8.57293869 4.03249985,8.60392631 4.29458745,8.60392631 C4.48866499,8.60392631 4.73969405,8.5897916 5.04712171,8.56206584 C5.35565522,8.53379644 5.6575536,8.47508306 5.95447564,8.38538206 C6.25084475,8.29513742 6.50740308,8.17227424 6.72415064,8.01516158 C6.9408982,7.85859257 7.04927198,7.65092117 7.04927198,7.39269103 C7.04927198,7.13446089 6.94919211,6.94418605 6.75013823,6.82077922 C6.55053142,6.6973724 6.28789089,6.6076714 5.96276955,6.55167623 C5.63820114,6.49568106 5.26718683,6.45925702 4.85083246,6.44240411 C4.43392517,6.42555119 4.00927689,6.4 3.57633471,6.36683781 C3.14228666,6.33313198 2.71763839,6.27659317 2.30128402,6.19830867 C1.88492966,6.12002416 1.51446827,5.98791906 1.18934693,5.802537 C0.864225594,5.61769858 0.601585059,5.3654485 0.401978252,5.04578677 C0.202371444,4.72612504 0.102844505,4.30860767 0.102844505,3.79269103 C0.102844505,3.44530353 0.185230694,3.10280882 0.351108927,2.76629417 C0.515881305,2.42977952 0.769675002,2.13295077 1.11249002,1.87472063 C1.45419918,1.61703413 1.88769429,1.40664452 2.41297536,1.24409544 C2.93715058,1.08154636 3.55311175,1 4.26030595,1 C4.86465565,1 5.38993672,1.04512232 5.83449039,1.13482332 C6.27959698,1.22452431 6.66443448,1.31966173 6.98955581,1.42023558 C7.31467715,1.52135307 7.58837624,1.61703413 7.81065307,1.70673513 C8.03348283,1.79643612 8.21816059,1.8410148 8.36689808,1.8410148 C8.52669411,1.8410148 8.64059716,1.80730897 8.70916016,1.74044095 L8.91429625,1.87472063 L7.73379615,3.97752945 L7.56294157,3.91011779 C7.53971862,3.75354878 7.49437857,3.62416188 7.42581557,3.52358804 C7.33458254,3.38876472 7.18308042,3.25720326 6.97241506,3.12836001 C6.76119678,2.99951676 6.51293236,2.88426457 6.22817473,2.78314709 C5.94286416,2.6820296 5.63488358,2.60102688 5.30423297,2.53905165 C4.97302943,2.47762005 4.64237882,2.44663244 4.31172821,2.44663244 C4.06069915,2.44663244 3.80137617,2.46674721 3.53320636,2.50534582 C3.26558948,2.54503171 3.02285433,2.60428873 2.80610678,2.6820296 C2.58935922,2.76085775 2.4096578,2.86469345 2.26700252,2.9935367 C2.12434724,3.12237995 2.0530196,3.28221081 2.0530196,3.4730293 C2.0530196,3.74213229 2.15309947,3.94382362 2.35270627,4.07864693 C2.55231308,4.21347025 2.81440069,4.3140441 3.13952202,4.38145575 C3.46519629,4.44886741 3.83565768,4.49398973 4.25201204,4.51627907 C4.66781348,4.53856841 5.09301468,4.56629417 5.5265098,4.6 C5.96000491,4.63370583 6.38465319,4.69241921 6.80156048,4.77668378 C7.21736192,4.86094835 7.58837624,4.99522803 7.91349757,5.18061009 C8.23861891,5.3654485 8.50070652,5.61498037 8.70031333,5.92920568 C8.89992013,6.24288735 9,6.65279372 9,7.15729387 C9,7.74062217 8.84296861,8.21685291 8.52945875,8.58707339 C8.21539596,8.95729387 7.82502918,9.24922984 7.35725256,9.46179402 C6.88947595,9.67490184 6.38465319,9.81787979 5.84333722,9.89127152 C5.30146833,9.96357596 4.79609265,10 4.32886896,10 C3.67862628,10 3.13399275,9.96357596 2.69496836,9.89127152 C2.25594397,9.81787979 1.89045893,9.7281788 1.59961909,9.62162489 C1.30933219,9.51507098 1.07820852,9.41993355 0.906801008,9.33566898 C0.7353935,9.25140441 0.587208945,9.20954394 0.461694415,9.20954394 C0.382072864,9.20954394 0.307980586,9.25466626 0.239970511,9.34382362 L0,9.20954394 L0.941082509,7.17414678 Z" id="Fill-8"></path>
                        <path d="M20.0906338,6.50936905 L18.733215,3.32727161 L17.2149943,6.50936905 L20.0906338,6.50936905 Z M14,9.69201941 C14.1399186,9.66879646 14.2506004,9.59525711 14.3310014,9.46918965 C14.4119244,9.34422805 14.4897149,9.20157277 14.5654171,9.04177674 L17.5538269,2.3861891 C17.6295291,2.23745162 17.6968779,2.10087854 17.7558734,1.97536401 C17.815391,1.84984948 17.8451498,1.7414757 17.8451498,1.65024267 C17.8451498,1.53633962 17.8070377,1.45671807 17.7318576,1.41082509 C17.6566775,1.36493211 17.5757544,1.33065061 17.4896105,1.30798059 L17.4896105,1 L20.2201107,1 L20.2201107,1.30798059 C20.1444085,1.33065061 20.0687063,1.36216748 19.9935262,1.40197825 C19.918346,1.44234195 19.880756,1.52472814 19.880756,1.65024267 C19.880756,1.7414757 19.899551,1.83270873 19.9371411,1.92394176 C19.9747311,2.01517479 20.0316383,2.13516004 20.1068184,2.2833446 L23.4674742,9.24691282 C23.5207267,9.37298028 23.5932964,9.46421331 23.6851833,9.52061191 C23.776548,9.57811636 23.882009,9.63506789 24,9.69201941 L24,10 L21.1567297,10 L21.1567297,9.69201941 C21.1995406,9.69201941 21.2538373,9.67487866 21.3185758,9.64059716 C21.3833142,9.60631566 21.4156834,9.55489341 21.4156834,9.4863304 C21.4156834,9.37298028 21.3723504,9.2242428 21.2862065,9.04177674 L20.6722356,7.77557289 L16.7299781,7.77557289 L16.1488984,8.99035449 C16.040827,9.22977207 15.9870523,9.40062665 15.9870523,9.50347116 C15.9870523,9.62953861 16.0893808,9.69201941 16.2940378,9.69201941 L16.2940378,10 L14,10 L14,9.69201941 Z" id="Fill-10"></path>
                        <path d="M30,9.69201941 C30.3130232,9.69201941 30.4701187,9.58917491 30.4701187,9.3834859 L30.4701187,1.61596117 C30.4701187,1.41082509 30.3130232,1.30798059 30,1.30798059 L30,1 L33,1 L33,1.30798059 C32.6863928,1.30798059 32.5298813,1.41082509 32.5298813,1.61596117 L32.5298813,9.3834859 C32.5298813,9.58917491 32.6863928,9.69201941 33,9.69201941 L33,10 L30,10 L30,9.69201941 Z" id="Fill-12"></path>
                        <path d="M45.6931881,10 C45.6931881,9.83510228 45.6392068,9.74117996 45.5312443,9.71930033 C45.4232817,9.69742069 45.2839219,9.68621405 45.1137156,9.68621405 L37,9.68621405 L37,9.38897124 C37.3409633,9.38897124 37.5111696,9.29024607 37.5111696,9.09172843 L37.5111696,1.59501927 C37.5111696,1.39650163 37.3409633,1.29724281 37,1.29724281 L37,1 L39.9320644,1 L39.9320644,1.29724281 C39.613685,1.29724281 39.4550462,1.39650163 39.4550462,1.59501927 L39.4550462,8.16744738 L45.1137156,8.16744738 C45.2839219,8.16744738 45.4232817,8.12849096 45.5312443,8.05164542 C45.6392068,7.97426623 45.6931881,7.86967092 45.6931881,7.73785947 L46,7.73785947 L46,10 L45.6931881,10 Z" id="Fill-14"></path>
                        <path d="M51,9.69201941 C51.3130232,9.69201941 51.4701187,9.58917491 51.4701187,9.3834859 L51.4701187,1.61596117 C51.4701187,1.41082509 51.3130232,1.30798059 51,1.30798059 L51,1 L54,1 L54,1.30798059 C53.6863928,1.30798059 53.5298813,1.41082509 53.5298813,1.61596117 L53.5298813,9.3834859 C53.5298813,9.58917491 53.6863928,9.69201941 54,9.69201941 L54,10 L51,10 L51,9.69201941 Z" id="Fill-16"></path>
                        <path d="M60,9.69201941 C60.2128931,9.69201941 60.3198827,9.58917491 60.3198827,9.3834859 L60.3198827,1.61596117 C60.3198827,1.41082509 60.2128931,1.30798059 60,1.30798059 L60,1 L62.8740564,1 L62.8740564,1.30798059 C62.7844458,1.30798059 62.7393689,1.36493211 62.7393689,1.47883517 C62.7393689,1.57062112 62.8512464,1.72986423 63.0755445,1.95822326 L67.8993103,7.05676722 L67.8993103,1.61596117 C67.8993103,1.41082509 67.7532178,1.30798059 67.4621192,1.30798059 L67.4621192,1 L70,1 L70,1.30798059 C69.7871069,1.30798059 69.6801173,1.41082509 69.6801173,1.61596117 L69.6801173,9.3834859 C69.6801173,9.58917491 69.7871069,9.69201941 70,9.69201941 L70,10 L67.2769239,10 L67.2769239,9.69201941 C67.4224733,9.69201941 67.495791,9.64059716 67.495791,9.53775266 C67.495791,9.45813111 67.4056373,9.3270873 67.2264161,9.14462124 L62.1006897,3.70326227 L62.1006897,9.3834859 C62.1006897,9.58917491 62.2294031,9.69201941 62.4873731,9.69201941 L62.4873731,10 L60,10 L60,9.69201941 Z" id="Fill-18"></path>
                        <path d="M84.4851834,3.82639686 L84.1599032,3.72527937 C84.1814832,3.65786771 84.1925364,3.59045606 84.1925364,3.5230444 C84.1925364,3.35505889 84.0914785,3.20392631 83.8909416,3.06910299 C83.6898784,2.93482332 83.4346018,2.81957113 83.1251118,2.72443371 C82.8161482,2.62929629 82.4792884,2.55916641 82.1161114,2.5140441 C81.752408,2.46946542 81.407653,2.44663244 81.0818464,2.44663244 C80.67972,2.44663244 80.2807516,2.50534582 79.884415,2.62331622 C79.4880783,2.74128662 79.1354282,2.92340683 78.8259382,3.17022048 C78.5164482,3.41703413 78.2664351,3.73669586 78.0769514,4.12920568 C77.8869414,4.52171549 77.7916732,4.99794624 77.7916732,5.5589852 C77.7916732,6.10860767 77.8869414,6.58266385 78.0769514,6.98061009 C78.2664351,7.37855633 78.5164482,7.70093627 78.8259382,7.94774992 C79.1354282,8.19456358 79.4880783,8.37668378 79.884415,8.49465418 C80.2807516,8.61262458 80.67972,8.67133796 81.0818464,8.67133796 C81.7003,8.67133796 82.2566451,8.61806101 82.7508816,8.5115071 C83.2445918,8.40495319 83.6651403,8.29024464 84.0135797,8.16629417 L84.0135797,6.71966173 L81.9287331,6.71966173 C81.7766198,6.71966173 81.6624033,6.75336756 81.5866098,6.82023558 C81.51029,6.88764724 81.4613401,7.03388704 81.4402863,7.25786771 L81.147113,7.25786771 L81.147113,5.10504379 L81.4402863,5.10504379 C81.4613401,5.29531863 81.51029,5.41600725 81.5866098,5.46656599 C81.6624033,5.51712474 81.7766198,5.54213229 81.9287331,5.54213229 L86,5.54213229 L86,5.84494111 C85.7831465,5.87864693 85.6473499,5.91833283 85.5931365,5.96236786 C85.5389231,6.00749018 85.5120796,6.10317125 85.5120796,6.24886741 L85.5120796,8.14944126 C85.5120796,8.26197523 85.5447129,8.33482332 85.6099795,8.36852915 C85.6741934,8.40223497 85.7505132,8.44137723 85.8373599,8.4859559 L85.8373599,8.75560254 C85.4794463,9.01328904 85.1015317,9.22639686 84.7057214,9.39438236 C84.3088584,9.56291151 83.9072583,9.69447297 83.4998684,9.79015403 C83.0924786,9.88529145 82.685615,9.94454847 82.2787515,9.96629417 C81.8713617,9.98858351 81.4723933,10 81.0818464,10 C80.3212801,10 79.6291384,9.90214437 79.004895,9.70588946 C78.3806516,9.50963455 77.8458866,9.21769858 77.4006,8.83116883 C76.9553134,8.44409544 76.6105585,7.97275748 76.3663351,7.41824222 C76.1221117,6.86263969 76,6.2320145 76,5.52527937 C76,4.81854425 76.1221117,4.18791906 76.3663351,3.63286016 C76.6105585,3.07780127 76.9553134,2.60428873 77.4006,2.21123528 C77.8458866,1.81872546 78.3806516,1.5191785 79.004895,1.31096346 C79.6291384,1.1038357 80.3212801,1 81.0818464,1 C81.55924,1 82.0155798,1.03370583 82.4498131,1.10111749 C82.8840465,1.16852915 83.26933,1.24409544 83.6061898,1.32781637 C83.9430496,1.41208094 84.2220117,1.49090909 84.444655,1.56321353 C84.6672983,1.63660526 84.8057266,1.6730293 84.85994,1.6730293 C84.9578399,1.6730293 85.0341597,1.65019632 85.0878467,1.60561764 C85.1420601,1.56103896 85.1967998,1.52135307 85.2510132,1.48764724 L85.446813,1.60561764 L84.4851834,3.82639686 Z" id="Fill-20"></path>
                        <path d="M100,9.69201941 C100.3125,9.69201941 100.469626,9.58917491 100.469626,9.3834859 L100.469626,1.61596117 C100.469626,1.41082509 100.3125,1.30798059 100,1.30798059 L100,1 L103,1 L103,1.30798059 C102.686332,1.30798059 102.530374,1.41082509 102.530374,1.61596117 L102.530374,9.3834859 C102.530374,9.58917491 102.686332,9.69201941 103,9.69201941 L103,10 L100,10 L100,9.69201941 Z" id="Fill-22"></path>
                        <path d="M110,9.69201941 C110.213436,9.69201941 110.319883,9.58917491 110.319883,9.3834859 L110.319883,1.61596117 C110.319883,1.41082509 110.213436,1.30798059 110,1.30798059 L110,1 L112.874599,1 L112.874599,1.30798059 C112.784446,1.30798059 112.739912,1.36493211 112.739912,1.47883517 C112.739912,1.57062112 112.851789,1.72986423 113.075544,1.95822326 L117.89931,7.05676722 L117.89931,1.61596117 C117.89931,1.41082509 117.753761,1.30798059 117.462662,1.30798059 L117.462662,1 L120,1 L120,1.30798059 C119.787107,1.30798059 119.68066,1.41082509 119.68066,1.61596117 L119.68066,9.3834859 C119.68066,9.58917491 119.787107,9.69201941 120,9.69201941 L120,10 L117.276924,10 L117.276924,9.69201941 C117.423016,9.69201941 117.496334,9.64059716 117.496334,9.53775266 C117.496334,9.45813111 117.405637,9.3270873 117.226959,9.14462124 L112.10069,3.70326227 L112.10069,9.3834859 C112.10069,9.58917491 112.229403,9.69201941 112.487373,9.69201941 L112.487373,10 L110,10 L110,9.69201941 Z" id="Fill-24"></path>
                        <path d="M139.871084,4.76433004 C140.226038,4.76433004 140.529391,4.69023776 140.782186,4.5420532 C141.03498,4.39386865 141.161638,4.10302881 141.161638,3.6695337 C141.161638,3.23603858 141.03498,2.94519875 140.782186,2.79701419 C140.529391,2.64827671 140.226038,2.57418443 139.871084,2.57418443 L136.435687,2.57418443 L136.435687,4.76433004 L139.871084,4.76433004 Z M134,10 L134,9.69201941 C134.397695,9.69201941 134.596803,9.58972784 134.596803,9.38403883 L134.596803,1.6165141 C134.596803,1.41082509 134.397695,1.30798059 134,1.30798059 L134,1 L139.677188,1 C140.709735,1 141.521805,1.20292437 142.113395,1.60766726 C142.704465,2.01296308 143,2.69969896 143,3.6695337 C143,4.63881551 142.704465,5.32665725 142.113395,5.73084721 C141.521805,6.13614302 140.709735,6.33851447 139.677188,6.33851447 L136.435687,6.33851447 L136.435687,9.38403883 C136.435687,9.58972784 136.607691,9.69201941 136.9517,9.69201941 L136.9517,10 L134,10 Z" id="Fill-26"></path>
                        <path d="M154.090634,6.50936905 L152.733737,3.32727161 L151.215516,6.50936905 L154.090634,6.50936905 Z M148,9.69201941 C148.139396,9.66879646 148.2506,9.59525711 148.331001,9.46918965 C148.411924,9.34422805 148.489715,9.20157277 148.565417,9.04177674 L151.554349,2.3861891 C151.629529,2.23745162 151.696356,2.10087854 151.756396,1.97536401 C151.815391,1.84984948 151.844628,1.7414757 151.844628,1.65024267 C151.844628,1.53633962 151.807038,1.45671807 151.731858,1.41082509 C151.656155,1.36493211 151.575754,1.33065061 151.489611,1.30798059 L151.489611,1 L154.220111,1 L154.220111,1.30798059 C154.144408,1.33065061 154.069228,1.36216748 153.993526,1.40197825 C153.917824,1.44234195 153.880756,1.52472814 153.880756,1.65024267 C153.880756,1.7414757 153.899029,1.83270873 153.936619,1.92394176 C153.974731,2.01517479 154.031638,2.13516004 154.107341,2.2833446 L157.466952,9.24691282 C157.521249,9.37298028 157.593819,9.46421331 157.685183,9.52061191 C157.77707,9.57811636 157.882009,9.63506789 158,9.69201941 L158,10 L155.157252,10 L155.157252,9.69201941 C155.199541,9.69201941 155.254359,9.67487866 155.319098,9.64059716 C155.382792,9.60631566 155.415161,9.55489341 155.415161,9.4863304 C155.415161,9.37298028 155.37235,9.2242428 155.286729,9.04177674 L154.672236,7.77557289 L150.729978,7.77557289 L150.148898,8.99035449 C150.040827,9.22977207 149.987052,9.40062665 149.987052,9.50347116 C149.987052,9.62953861 150.089381,9.69201941 150.294038,9.69201941 L150.294038,10 L148,10 L148,9.69201941 Z" id="Fill-28"></path>
                        <path d="M168.929208,5.00374762 C169.303724,5.00374762 169.615234,4.97223076 169.865248,4.90919703 C170.115262,4.84726915 170.312349,4.75880076 170.458023,4.64434478 C170.603192,4.53044173 170.707533,4.39663329 170.770036,4.24236653 C170.83254,4.08809977 170.863792,3.92000983 170.863792,3.73754377 C170.863792,3.55507772 170.83254,3.38698777 170.770036,3.23272102 C170.707533,3.07900719 170.603192,2.94464582 170.458023,2.83074277 C170.312349,2.71683971 170.115262,2.62837132 169.865248,2.56533759 C169.615234,2.50285679 169.303724,2.47133993 168.929208,2.47133993 L166.230972,2.47133993 L166.230972,5.00374762 L168.929208,5.00374762 Z M169.334976,1 C169.833996,1 170.286642,1.04865762 170.691403,1.14541992 C171.097676,1.24273515 171.445477,1.39644898 171.73632,1.60711433 C172.028171,1.81833262 172.25147,2.0920317 172.407729,2.42821159 C172.563484,2.7649444 172.641109,3.17853413 172.641109,3.66898077 C172.641109,4.42206795 172.438981,4.99766542 172.033716,5.39743196 C171.627443,5.79664557 171.081546,6.06426246 170.395519,6.20138846 L172.469728,9.4520489 C172.542313,9.56650488 172.628507,9.63451496 172.727303,9.65773791 C172.826603,9.68040794 172.91683,9.69201941 173,9.69201941 L173,10 L170.08401,10 L170.08401,9.69201941 C170.176757,9.69201941 170.257407,9.67487866 170.325455,9.64059716 C170.392999,9.60631566 170.426771,9.56097561 170.426771,9.50347116 C170.426771,9.44651963 170.406105,9.38127419 170.364268,9.30662899 C170.322935,9.23308964 170.260431,9.13300977 170.176757,9.00749524 L168.461439,6.33851447 L166.230972,6.33851447 L166.230972,9.3834859 C166.230972,9.4863304 166.26424,9.56374025 166.332288,9.61460957 C166.399832,9.66603182 166.521815,9.69201941 166.698236,9.69201941 L166.698236,10 L164,10 L164,9.69201941 C164.301428,9.69201941 164.452646,9.58917491 164.452646,9.3834859 L164.452646,1.61596117 C164.452646,1.41027216 164.301428,1.30742766 164,1.30742766 L164,1 L169.334976,1 Z" id="Fill-30"></path>
                        <path d="M184.090634,6.50936905 L182.733737,3.32727161 L181.215516,6.50936905 L184.090634,6.50936905 Z M178,9.69201941 C178.139396,9.66879646 178.2506,9.59525711 178.331001,9.46918965 C178.411924,9.34422805 178.489715,9.20157277 178.565417,9.04177674 L181.554349,2.3861891 C181.629529,2.23745162 181.696356,2.10087854 181.756396,1.97536401 C181.815391,1.84984948 181.844628,1.7414757 181.844628,1.65024267 C181.844628,1.53633962 181.807038,1.45671807 181.731858,1.41082509 C181.656155,1.36493211 181.575754,1.33065061 181.489611,1.30798059 L181.489611,1 L184.220111,1 L184.220111,1.30798059 C184.144408,1.33065061 184.069228,1.36216748 183.993526,1.40197825 C183.917824,1.44234195 183.880756,1.52472814 183.880756,1.65024267 C183.880756,1.7414757 183.899029,1.83270873 183.936619,1.92394176 C183.974731,2.01517479 184.031638,2.13516004 184.107341,2.2833446 L187.466952,9.24691282 C187.521249,9.37298028 187.593819,9.46421331 187.685183,9.52061191 C187.77707,9.57811636 187.882009,9.63506789 188,9.69201941 L188,10 L185.157252,10 L185.157252,9.69201941 C185.199541,9.69201941 185.254359,9.67487866 185.319098,9.64059716 C185.382792,9.60631566 185.415161,9.55489341 185.415161,9.4863304 C185.415161,9.37298028 185.37235,9.2242428 185.286729,9.04177674 L184.672236,7.77557289 L180.729978,7.77557289 L180.148898,8.99035449 C180.040827,9.22977207 179.987052,9.40062665 179.987052,9.50347116 C179.987052,9.62953861 180.089381,9.69201941 180.294038,9.69201941 L180.294038,10 L178,10 L178,9.69201941 Z" id="Fill-32"></path>
                        <path d="M197.932584,8.52810715 C198.461543,8.52810715 198.923358,8.48276709 199.317485,8.39153407 C199.711611,8.30030104 200.038594,8.13774037 200.297342,7.90385206 C200.556089,7.66996375 200.749877,7.35921853 200.879797,6.97106346 C201.009171,6.58346133 201.074131,6.09301468 201.074131,5.49972354 C201.074131,4.90698532 201.009171,4.41653867 200.879797,4.02838361 C200.749877,3.64078147 200.556089,3.33003625 200.297342,3.09614794 C200.038594,2.86225963 199.711611,2.69969896 199.317485,2.60791301 C198.923358,2.51723291 198.461543,2.47133993 197.932584,2.47133993 L195.313991,2.47133993 L195.313991,8.52810715 L197.932584,8.52810715 Z M198.607839,1 C199.227414,1 199.803865,1.09123303 200.339374,1.27369908 C200.873792,1.45616514 201.338883,1.73318179 201.733555,2.10364318 C202.12659,2.47465749 202.43665,2.94188118 202.662099,3.5064201 C202.887003,4.07095902 203,4.73557781 203,5.49972354 C203,6.26386926 202.887003,6.92848805 202.662099,7.49302697 C202.43665,8.05756589 202.12659,8.52534251 201.733555,8.89635682 C201.338883,9.26681821 200.873792,9.54383486 200.339374,9.72630092 C199.803865,9.90876697 199.227414,10 198.607839,10 L193,10 L193,9.69201941 C193.258202,9.69201941 193.388668,9.58917491 193.388668,9.3834859 L193.388668,1.61596117 C193.388668,1.41027216 193.258202,1.30742766 193,1.30742766 L193,1 L198.607839,1 Z" id="Fill-34"></path>
                        <path d="M208,9.69201941 C208.313023,9.69201941 208.469535,9.58917491 208.469535,9.3834859 L208.469535,1.61596117 C208.469535,1.41082509 208.313023,1.30798059 208,1.30798059 L208,1 L211,1 L211,1.30798059 C210.685809,1.30798059 210.529881,1.41082509 210.529881,1.61596117 L210.529881,9.3834859 C210.529881,9.58917491 210.685809,9.69201941 211,9.69201941 L211,10 L208,10 L208,9.69201941 Z" id="Fill-36"></path>
                        <path d="M217.940587,7.17414678 L218.112005,7.25786771 C218.112005,7.3589852 218.134677,7.4486862 218.180573,7.52751435 C218.259646,7.66179402 218.416687,7.79389912 218.65059,7.92219873 C218.884493,8.05158562 219.152679,8.16629417 219.454596,8.26741166 C219.757066,8.36852915 220.073913,8.45007551 220.404583,8.5115071 C220.735254,8.57293869 221.032195,8.60392631 221.294298,8.60392631 C221.488388,8.60392631 221.739432,8.5897916 222.046879,8.56206584 C222.355431,8.53379644 222.656795,8.47508306 222.954289,8.38538206 C223.251229,8.29513742 223.507803,8.17227424 223.724011,8.01516158 C223.940219,7.85859257 224.049152,7.65092117 224.049152,7.39269103 C224.049152,7.13446089 223.949619,6.94418605 223.75,6.82077922 C223.550381,6.6973724 223.287724,6.6076714 222.962583,6.55167623 C222.637995,6.49568106 222.266957,6.45925702 221.850578,6.44240411 C221.433645,6.42555119 221.009523,6.4 220.576001,6.36683781 C220.141927,6.33313198 219.716699,6.27659317 219.300872,6.19830867 C218.884493,6.12002416 218.514008,5.98791906 218.188867,5.802537 C217.863726,5.61769858 217.601622,5.3654485 217.40145,5.04578677 C217.201831,4.72612504 217.101745,4.30860767 217.101745,3.79269103 C217.101745,3.44530353 217.184689,3.10280882 217.350025,2.76629417 C217.51536,2.42977952 217.769169,2.13295077 218.112005,1.87472063 C218.453736,1.61703413 218.887257,1.40664452 219.412018,1.24409544 C219.936778,1.08154636 220.552224,1 221.260015,1 C221.864955,1 222.389715,1.04512232 222.834296,1.13482332 C223.27943,1.22452431 223.664844,1.31966173 223.989432,1.42023558 C224.314574,1.52135307 224.587737,1.61703413 224.811133,1.70673513 C225.033423,1.79643612 225.218666,1.8410148 225.366306,1.8410148 C225.526112,1.8410148 225.640575,1.80730897 225.709142,1.74044095 L225.914844,1.87472063 L224.734271,3.97752945 L224.562853,3.91011779 C224.539629,3.75354878 224.494286,3.62416188 224.425719,3.52358804 C224.333927,3.38876472 224.183522,3.25720326 223.97229,3.12836001 C223.760506,2.99951676 223.51278,2.88426457 223.227451,2.78314709 C222.942676,2.6820296 222.634677,2.60102688 222.303453,2.53905165 C221.972782,2.47762005 221.642111,2.44663244 221.311993,2.44663244 C221.060396,2.44663244 220.800504,2.46674721 220.533423,2.50534582 C220.265237,2.54503171 220.022487,2.60428873 219.805173,2.6820296 C219.588965,2.76085775 219.409253,2.86469345 219.266589,2.9935367 C219.123925,3.12237995 219.052593,3.28221081 219.052593,3.4730293 C219.052593,3.74213229 219.152679,3.94382362 219.352851,4.07864693 C219.551364,4.21347025 219.814574,4.3140441 220.139715,4.38145575 C220.464856,4.44886741 220.834787,4.49398973 221.25172,4.51627907 C221.667547,4.53856841 222.093328,4.56629417 222.526849,4.6 C222.959265,4.63370583 223.384493,4.69241921 223.800872,4.77668378 C224.217805,4.86094835 224.587737,4.99522803 224.913984,5.18061009 C225.238572,5.3654485 225.501229,5.61498037 225.700848,5.92920568 C225.899361,6.24288735 226,6.65279372 226,7.15729387 C226,7.74062217 225.842959,8.21685291 225.52943,8.58707339 C225.215348,8.95729387 224.824957,9.24922984 224.357152,9.46179402 C223.889346,9.67490184 223.384493,9.81787979 222.843143,9.89127152 C222.301241,9.96357596 221.796387,10 221.328582,10 C220.678299,10 220.133632,9.96357596 219.694581,9.89127152 C219.254977,9.81787979 218.890575,9.7281788 218.599164,9.62162489 C218.308307,9.51507098 218.077722,9.41993355 217.906304,9.33566898 C217.734886,9.25140441 217.587245,9.20954394 217.461723,9.20954394 C217.381543,9.20954394 217.307447,9.25466626 217.238879,9.34382362 L217,9.20954394 L217.940587,7.17414678 Z" id="Fill-38"></path>
                        <path d="M240.582819,2.08808996 C240.582819,1.97205657 240.533408,1.88515931 240.435149,1.82688703 C240.336889,1.76912592 240.166199,1.73998978 239.922515,1.73998978 L234.293655,1.73998978 L234.293655,3.70131198 L237.699045,3.70131198 C237.930938,3.70131198 238.110051,3.672687 238.238069,3.61441472 C238.364964,3.5566536 238.428972,3.40586131 238.428972,3.16357131 L238.741718,3.16357131 L238.741718,5.6314534 L238.428972,5.6314534 C238.428972,5.38865224 238.364964,5.2332595 238.238069,5.16425285 C238.110051,5.09575737 237.930938,5.06150963 237.699045,5.06150963 L234.293655,5.06150963 L234.293655,7.24467541 L240.096575,7.24467541 C240.270634,7.24467541 240.412128,7.20736071 240.52274,7.13375362 C240.632229,7.06014653 240.687254,6.95944795 240.687254,6.83319134 L241,6.83319134 L241,9 L240.687254,9 C240.687254,8.84205146 240.632229,8.75208724 240.52274,8.73164082 C240.412128,8.71017209 240.270634,8.69994888 240.096575,8.69994888 L232,8.69994888 L232,8.41523258 C232.081415,8.41523258 232.153285,8.39120804 232.216732,8.34367013 C232.280741,8.29664338 232.312746,8.22508093 232.312746,8.13000511 L232.312746,0.94922474 C232.312746,0.854148918 232.280741,0.783097632 232.216732,0.735559721 C232.153285,0.68802181 232.081415,0.664508434 232,0.664508434 L232,0.379792128 L239.922515,0.379792128 C240.166199,0.379792128 240.336889,0.345544386 240.435149,0.277048901 C240.533408,0.208553416 240.582819,0.116033396 240.582819,0 L240.896126,0 L240.896126,2.08808996 L240.582819,2.08808996 Z" id="Fill-40"></path>
                    </g>
                </g>
            </g>
        </g>
    </g>
</svg>