<svg height="42px" width="42px" version="1.1" viewBox="0 0 42 42"><defs/><g id="-" fill="none" stroke="none" strokeWidth="1"><g id="Single-Happy-Sailors" fill="#FFFFFF" transform="translate(-517.000000, -1573.000000)"><path id="Page-1" d="M549.014624,1602.98413 C555.197461,1595.76729 554.770369,1585.03534 548.063419,1578.34176 C540.975986,1571.21941 529.466398,1571.21941 522.332357,1578.34176 C515.198313,1585.46411 515.246824,1596.95435 522.332357,1604.03064 C529.039307,1610.7266 539.786503,1611.15299 547.015185,1604.98029 L557.002844,1615 L559,1613.00612 L549.014624,1602.98413 Z M524.39944,1601.6705 C518.53352,1595.80474 518.53352,1586.26275 524.39944,1580.39932 C530.265359,1574.53356 539.807602,1574.53356 545.671194,1580.39932 C551.489634,1586.31023 551.442156,1595.80707 545.531188,1601.6705 C539.667131,1607.44317 530.264996,1607.44317 524.399543,1601.6705 L524.39944,1601.6705 Z"/></g></g></svg>