<?xml version="1.0" encoding="UTF-8"?>
<svg width="55px" height="55px" viewBox="0 0 55 55" version="1.1" xmlns="http://www.w3.org/2000/svg" xmlns:xlink="http://www.w3.org/1999/xlink">
    <!-- Generator: Sketch 50.2 (55047) - http://www.bohemiancoding.com/sketch -->
    <title>Fill 1</title>
    <desc>Created with Sketch.</desc>
    <defs></defs>
    <g id="-" stroke="none" stroke-width="1" fill="none" fill-rule="evenodd">
        <g id="Homepage" transform="translate(-303.000000, -3672.000000)" fill="#413F47">
            <g id="highlights" transform="translate(141.000000, 3199.000000)">
                <g id="Group-44" transform="translate(44.000000, 473.000000)">
                    <path d="M145.519691,53.1670027 C142.273891,53.1670027 139.169134,52.5547816 136.307995,51.4485678 C133.06769,39.3617837 137.105707,24.5172552 137.81916,22.0720368 C138.118645,22.1096132 138.421794,22.1352752 138.73227,22.1352752 C140.491632,22.1352752 142.108121,21.5111396 143.372921,20.4736632 C146.22307,23.5182717 160.641417,39.0657546 163.889048,45.3859292 C159.228248,50.1810501 152.718332,53.1670027 145.519691,53.1670027 M119.896741,28.5306027 C124.16189,23.0875173 130.305464,19.572745 132.395451,18.4793621 C133.221554,19.894436 134.503755,21.0088984 136.042396,21.6174535 C135.24102,24.323874 131.452117,38.2509873 134.193279,50.5219876 C126.007344,46.4719801 120.27957,38.1785839 119.896741,28.5306027 M128.767738,8.08901701 C130.423609,8.47211345 131.916457,9.95317525 132.615257,10.7450301 C131.84502,11.9062339 131.393502,13.2974788 131.393502,14.7932046 C131.393502,15.4842446 131.496078,16.1505391 131.675587,16.7847561 C129.790752,17.7489127 124.376201,20.7706087 119.945282,25.6298845 C120.451751,18.6379164 123.768072,12.4167236 128.767738,8.08901701 M166.337136,12.5331189 C155.813015,9.20531236 147.963199,11.6468647 145.707442,12.5221209 C145.169833,10.8733399 144.064393,9.48392795 142.622833,8.57751079 C143.798794,6.11671194 145.864969,2.58819216 147.253409,2.01996301 L147.202121,1.89440269 C155.073002,2.40764193 161.984064,6.48697739 166.337136,12.5331189 M146.070121,14.7932046 C146.070121,14.6483978 146.056384,14.5063405 146.049057,14.3633667 C147.484206,13.7749746 156.285598,10.5773108 167.928896,15.0314942 C169.989576,18.7259003 171.169201,22.976621 171.169201,27.5004582 C171.169201,33.754645 168.919854,39.49101 165.192313,43.9488594 C161.182689,36.8945693 147.283633,21.9574745 144.635888,19.1374081 C145.532513,17.9193814 146.070121,16.4190732 146.070121,14.7932046 M138.733186,7.45021746 C136.844687,7.45021746 135.126538,8.17333489 133.825104,9.35011914 C133.118978,8.57842729 131.914625,7.44196897 130.44559,6.75367849 C134.459794,3.82454883 139.35139,2.03554348 144.645963,1.85682625 C143.028558,3.68799054 141.584251,6.50805686 140.964215,7.80031994 C140.25992,7.57394478 139.511665,7.45021746 138.733186,7.45021746 M133.226134,14.7932046 C133.226134,11.7550116 135.696202,9.28321474 138.734102,9.28321474 C141.769254,9.28321474 144.239322,11.7550116 144.239322,14.7932046 C144.239322,17.8313976 141.77017,20.3031944 138.734102,20.3031944 C135.696202,20.3022779 133.226134,17.8313976 133.226134,14.7932046 M169.232162,13.6274183 L169.25231,13.5770109 C169.231246,13.5687624 169.210181,13.5614304 169.190032,13.5531819 C164.40376,5.45041742 155.587714,0 145.519691,0 C130.366826,0 118.038466,12.3360717 118.038466,27.4995418 C118.038466,27.637933 118.046709,27.7754078 118.049456,27.9128826 C118.032971,27.9339621 118.016485,27.9532086 118,27.9752045 L118.052204,28.0136975 C118.327877,42.9407109 130.539923,55 145.519691,55 C160.672556,55 173,42.6639283 173,27.5004582 C173,22.4423022 171.62255,17.7040043 169.232162,13.6274183" id="Fill-1"></path>
                </g>
            </g>
        </g>
    </g>
</svg>