<svg width="55" height="55" xmlns="http://www.w3.org/2000/svg"><path d="M27.52 53.167c-3.246 0-6.35-.612-9.212-1.718-3.24-12.087.798-26.932 1.511-29.377.3.038.603.063.913.063 1.76 0 3.376-.624 4.64-1.661 2.851 3.044 17.27 18.592 20.517 24.912-4.66 4.795-11.17 7.781-18.37 7.781M1.898 28.531c4.265-5.443 10.408-8.958 12.498-10.052a7.372 7.372 0 0 0 3.647 3.138c-.801 2.707-4.59 16.634-1.849 28.905C8.007 46.472 2.28 38.179 1.897 28.531m8.87-20.442c1.657.383 3.15 1.864 3.848 2.656a7.3 7.3 0 0 0-1.221 4.048c0 .691.102 1.358.282 1.992-1.885.964-7.3 3.986-11.73 8.845.506-6.992 3.822-13.213 8.822-17.541m37.57 4.444c-10.525-3.328-18.375-.886-20.63-.01a7.367 7.367 0 0 0-3.085-3.945c1.176-2.461 3.242-5.99 4.63-6.558l-.05-.126c7.87.514 14.781 4.593 19.134 10.64m-20.267 2.26c0-.146-.014-.288-.02-.43 1.434-.589 10.236-3.787 21.879.667a25.52 25.52 0 0 1 3.24 12.47c0 6.254-2.25 11.99-5.977 16.448-4.01-7.054-17.908-21.992-20.556-24.812a7.306 7.306 0 0 0 1.434-4.344M20.733 7.45a7.295 7.295 0 0 0-4.908 1.9c-.706-.772-1.91-1.908-3.38-2.596a25.484 25.484 0 0 1 14.201-4.897c-1.617 1.831-3.062 4.651-3.682 5.943a7.273 7.273 0 0 0-2.23-.35m-5.508 7.343c0-3.038 2.47-5.51 5.508-5.51a5.514 5.514 0 0 1 5.505 5.51c0 3.038-2.469 5.51-5.505 5.51a5.515 5.515 0 0 1-5.508-5.51m36.006-1.166l.02-.05-.062-.024C46.404 5.45 37.588 0 27.52 0 12.367 0 .038 12.336.038 27.5c0 .138.009.275.011.413-.016.021-.033.04-.049.062l.052.039C.328 42.94 12.54 55 27.52 55 42.673 55 55 42.664 55 27.5a27.34 27.34 0 0 0-3.768-13.873" fill="#413F47" fill-rule="evenodd"/></svg>