<svg width="25" height="30" xmlns="http://www.w3.org/2000/svg"><g fill="#413F47"><path d="M6.664 26.327c-.334 0-.605-.328-.605-.731v-8.334c0-.403.271-.731.605-.731.335 0 .606.328.606.73v8.335c0 .403-.271.73-.606.73M10.906 26.327c-.334 0-.606-.328-.606-.731v-8.334c0-.403.272-.731.606-.731.334 0 .605.328.605.73v8.335c0 .403-.271.73-.605.73M15.147 26.327c-.334 0-.606-.328-.606-.731v-8.334c0-.403.272-.731.606-.731.334 0 .606.328.606.73v8.335c0 .403-.272.73-.606.73"/><path d="M13.085 12.87c0 .86.516 1.586 1.127 1.586h.102c.611 0 1.127-.726 1.127-1.586v-2.814l.874.194c.317.07.633.105.937.105 1.955 0 3.544-1.272 3.544-2.835 0-1.564-1.59-2.836-3.544-2.836-.451 0-.898.07-1.327.21l-.63.206-.255-.619c-.758-1.837-2.583-3.024-4.65-3.024-1.999 0-3.801 1.132-4.592 2.882l-.238.525L5 4.75a3.234 3.234 0 0 0-.656-.067c-1.602 0-2.904 1.202-2.904 2.68 0 1.478 1.31 2.68 2.919 2.68.604 0 1.183-.168 1.677-.488l.466-.302.408.378c.94.87 2.176 1.349 3.48 1.349.586 0 1.17-.102 1.737-.303l.958-.339v2.532zm6.943 7.299h.919v-3.59h-.919v3.59zm1.854 2.243c.837 0 1.517-.74 1.517-1.652v-4.772c0-.91-.68-1.651-1.517-1.651h-1.854v.786h1.164c.67 0 1.195.528 1.195 1.2v4.102c0 .674-.525 1.2-1.195 1.2h-1.164v.787h1.854zM3.495 26.596c0 1.073.863 1.947 1.925 1.947h11.242a1.938 1.938 0 0 0 1.925-1.947V11.653a5.683 5.683 0 0 1-1.706.146v1.071c0 1.678-1.152 3.043-2.567 3.043h-.103c-1.415 0-2.566-1.365-2.566-3.043v-.556a6.58 6.58 0 0 1-5.306-1.266 4.558 4.558 0 0 1-1.98.452c-.284 0-.573-.028-.864-.086v15.182zM5.42 30c-1.856 0-3.366-1.528-3.366-3.404V10.867C.785 10.113 0 8.778 0 7.363c0-2.28 1.95-4.136 4.345-4.136.13 0 .26.005.392.016C5.867 1.24 8.023 0 10.39 0c2.422 0 4.597 1.28 5.707 3.345a5.72 5.72 0 0 1 1.156-.118c2.748 0 4.984 1.925 4.984 4.292 0 1.434-.824 2.759-2.208 3.561v1.8h1.854c1.63 0 2.958 1.395 2.958 3.109v4.772c0 1.714-1.327 3.108-2.958 3.108h-1.854v2.727c0 1.877-1.51 3.404-3.366 3.404H5.42z"/></g></svg>
