<svg width="56" height="53" xmlns="http://www.w3.org/2000/svg"><path d="M47.34 51.351H8.72L2.154 36.9H53.906L47.34 51.35zM9.283 13.966c3.433-4.14 7.627-7.455 11.658-9.868-.372.616-.72 1.28-1.048 1.982-1.313 2.808-2.276 6.27-2.812 9.918-.996 6.769-.577 14.185 2.14 19.251H1.659c-.313-8.538 2.956-15.654 7.624-21.283zM24.49 2.338V35.25h-3.375c-2.788-4.464-3.432-12.101-2.415-19.01.517-3.515 1.451-6.842 2.674-9.458.912-1.954 1.993-3.49 3.116-4.444zm1.638-.626h3.809V35.25H26.13V1.712zm5.447 14.238l7.95 9.445 8.297 9.855H31.576v-19.3zm18.394 19.3l-9.194-10.922-9.2-10.93V.889a.822.822 0 0 0-.82-.825h-5.141a.801.801 0 0 0-.67.021 6.668 6.668 0 0 0-.695.384C18.942 2.96 12.813 7.136 8.025 12.91 3.015 18.95-.515 26.772.06 36.125c.007.132.045.26.111.375l7.276 16.019a.818.818 0 0 0 .745.481h39.673a.82.82 0 0 0 .746-.481l7.313-16.102a.826.826 0 0 0-.744-1.167h-5.21z" fill="#413F47" fill-rule="evenodd"/></svg>