<svg width="31" height="30" xmlns="http://www.w3.org/2000/svg"><path d="M2.293 21.333h26.351l-4.532 5.88a4.613 4.613 0 0 1-.657-.144c-.512-.165-.868-.419-.987-.593-.304-.43-1.082-.401-1.353.048-.491.826-.957 1.345-1.34 1.622-.383.277-.65.338-.987.302-.672-.07-1.732-.8-3.009-2.081-.36-.371-1.103-.248-1.316.218-.386.826-.764 1.263-1.035 1.44-.272.177-.43.186-.73.097-.604-.179-1.597-1.077-2.547-2.118-.292-.316-.864-.327-1.17-.024-.748.742-1.58 1.095-2.363 1.21l-4.325-5.857zm10.294-10.2v8.651H3.864l8.723-8.652zm3.619-7.878c1.207 1.832 2.256 3.807 2.68 5.99.562 2.896.084 6.213-2.68 10.334V3.255zm1.522-.52c2.33 1.137 4.97 2.57 7.14 4.61 2.947 2.772 5.043 6.576 4.386 12.44h-11.33c2.571-4.115 3.102-7.723 2.497-10.843-.453-2.335-1.51-4.372-2.693-6.207zm-3.581 17.05h.5V1.548h-.5v18.235zM13.282 0a.804.804 0 0 0-.695.774v8.18l-10.94 10.83H.672c-.538.059-.864.786-.548 1.223l4.35 5.892c-.285-.136-.52-.3-.658-.471-.247-.35-.813-.434-1.156-.172-.344.261-.392.813-.1 1.127 1.33 1.652 4.454 2.13 6.933.23.811.868 1.666 1.667 2.741 1.985.657.194 1.44.129 2.083-.29.406-.265.755-.632 1.073-1.114 1.047.972 2.048 1.669 3.216 1.791.725.076 1.489-.14 2.132-.605.44-.319.841-.746 1.23-1.283.3.184.638.336.987.448.728.234 1.538.326 2.351.29.813-.035 1.622-.199 2.327-.568.706-.37 1.317-.986 1.535-1.815.128-.45-.262-.964-.743-.98-.368-.01-.723.257-.804.605-.094.357-.322.602-.743.822-.213.112-.472.2-.756.267l4.727-6.135a.796.796 0 0 0-.048-.993c.727-6.351-1.64-10.789-4.861-13.818C22.645 3.12 18.51 1.402 15.853.12c-.206-.097-.346-.11-.549-.121h-2.022z" fill="#413F47" fill-rule="evenodd"/></svg>