<?xml version="1.0" encoding="UTF-8"?>
<svg width="31px" height="30px" viewBox="0 0 31 30" version="1.1" xmlns="http://www.w3.org/2000/svg" xmlns:xlink="http://www.w3.org/1999/xlink">
    <!-- Generator: Sketch 50.2 (55047) - http://www.bohemiancoding.com/sketch -->
    <title>Fill 1</title>
    <desc>Created with Sketch.</desc>
    <defs></defs>
    <g id="-" stroke="none" stroke-width="1" fill="none" fill-rule="evenodd">
        <g id="Parent-Private-Charters" transform="translate(-705.000000, -2320.000000)" fill="#413F47">
            <g id="Group-25" transform="translate(595.000000, 2320.000000)">
                <path d="M112.292832,21.3331743 L138.644231,21.3331743 L134.112244,27.2138816 C133.880096,27.1762071 133.654642,27.1329512 133.454551,27.068765 C132.943051,26.9044624 132.586904,26.6501597 132.467836,26.4757408 C132.164177,26.0466704 131.385654,26.0745774 131.115461,26.5242293 C130.624041,27.3502771 130.157984,27.8686501 129.775416,28.1456273 C129.392496,28.4226045 129.124416,28.4836511 128.788348,28.4484185 C128.116212,28.3776044 127.055519,27.6488823 125.779236,26.3669034 C125.419213,25.99574 124.675918,26.1188798 124.463498,26.584927 C124.077407,27.4109749 123.699418,27.8477198 123.428169,28.0245806 C123.156214,28.2017901 122.998748,28.2105111 122.697203,28.1215575 C122.09376,27.9433014 121.100704,27.0446952 120.150977,26.0037633 C119.859295,25.688414 119.2865,25.6765535 118.981079,25.9796935 C118.232852,26.7223691 117.401489,27.075393 116.617682,27.1898118 L112.292832,21.3331743 Z M122.587294,11.13246 L122.587294,19.7843346 L113.86432,19.7843346 L122.587294,11.13246 Z M126.205838,3.2550053 C127.412724,5.08745015 128.462144,7.06222081 128.885928,9.24489879 C129.447803,12.14095 128.970121,15.4576996 126.205838,19.5785203 L126.205838,3.2550053 Z M127.72836,2.73488818 C130.057586,3.87209933 132.69787,5.30407841 134.867869,7.34512825 C137.815334,10.1173421 139.911003,13.921418 139.253663,19.7843346 L127.923519,19.7843346 C130.495461,15.669793 131.026336,12.0617638 130.42078,8.9421076 C129.967757,6.60698751 128.911291,4.56977489 127.72836,2.73453934 L127.72836,2.73488818 Z M124.146805,19.7843346 L124.646327,19.7843346 L124.646327,1.54883973 L124.146805,1.54883973 L124.146805,19.7843346 Z M123.281975,0 C122.90293,0.0415116956 122.58518,0.39558204 122.587294,0.774419867 L122.587294,8.95431692 L111.647116,19.7843346 L110.672378,19.7843346 C110.133753,19.8429393 109.807901,20.5695684 110.124242,21.0066621 L114.473751,26.8992299 C114.189115,26.7631831 113.953797,26.5988806 113.815706,26.4276012 C113.569115,26.0780658 113.003013,25.993647 112.659548,26.2556242 C112.316082,26.5172525 112.267821,27.0694627 112.560911,27.3834167 C113.890388,29.0351636 117.013637,29.513769 119.492931,27.6133008 C120.304215,28.4805115 121.158829,29.2803966 122.233964,29.5978389 C122.891305,29.7917927 123.674055,29.7269089 124.317305,29.3072571 C124.72277,29.0431869 125.07152,28.6762095 125.389622,28.1941157 C126.437281,29.1659778 127.438087,29.8626068 128.605871,29.9850489 C129.3312,30.0610955 130.094927,29.8451649 130.737825,29.3801642 C131.178166,29.0613264 131.579052,28.634349 131.968313,28.0974876 C132.268097,28.2813252 132.605926,28.4330696 132.955029,28.5450465 C133.683176,28.7787678 134.493403,28.8705122 135.306096,28.8356284 C136.119141,28.8003958 136.927607,28.636442 137.633209,28.266674 C138.338811,27.8972548 138.950004,27.2812072 139.16806,26.451671 C139.296288,26.0027168 138.906322,25.4881811 138.425117,25.4714369 C138.057345,25.4613206 137.701549,25.729228 137.621231,26.0766704 C137.527175,26.4338803 137.29855,26.6791132 136.877936,26.8992299 C136.664811,27.010858 136.406243,27.0994628 136.122311,27.1657419 L140.849457,21.0307319 C141.067866,20.7439873 141.046026,20.3027075 140.800844,20.0382885 C141.527934,13.686999 139.161015,9.24943368 135.939834,6.21977758 C132.645381,3.1210516 128.511462,1.40197903 125.852509,0.121046709 C125.647486,0.0240698067 125.506929,0.0108139711 125.30402,0 L123.281975,0 Z" id="Fill-1"></path>
            </g>
        </g>
    </g>
</svg>