<?xml version="1.0" encoding="UTF-8"?>
<svg width="56px" height="53px" viewBox="0 0 56 53" version="1.1" xmlns="http://www.w3.org/2000/svg" xmlns:xlink="http://www.w3.org/1999/xlink">
    <!-- Generator: Sketch 50.2 (55047) - http://www.bohemiancoding.com/sketch -->
    <title>Fill 1</title>
    <desc>Created with Sketch.</desc>
    <defs></defs>
    <g id="-" stroke="none" stroke-width="1" fill="none" fill-rule="evenodd">
        <g id="Homepage" transform="translate(-1083.000000, -3431.000000)" fill="#413F47">
            <g id="highlights" transform="translate(141.000000, 3199.000000)">
                <g id="Group-35" transform="translate(830.000000, 232.000000)">
                    <path d="M159.340462,51.3511215 L140.029519,51.3511215 L120.719396,51.3511215 L114.15492,36.8987015 L140.030338,36.8987015 L165.905756,36.8987015 L159.340462,51.3511215 Z M121.282884,13.9660994 C124.716232,9.82576549 128.910452,6.51069527 132.940868,4.09838604 C132.569032,4.71424215 132.220127,5.37791575 131.892518,6.07951355 C130.579623,8.88837806 129.61727,12.349374 129.080809,15.9983421 C128.084876,22.7669884 128.504217,30.1828194 131.220918,35.2489986 L113.659411,35.2489986 C113.345725,26.7111057 116.615267,19.5945461 121.282884,13.9660994 Z M136.491336,2.33820824 L136.491336,35.249823 L133.116139,35.249823 C130.328182,30.7863089 129.683611,23.1487037 130.700838,16.2407273 C131.218461,12.7253183 132.152148,9.39788152 133.374951,6.78193579 C134.287343,4.82801477 135.368455,3.29208445 136.491336,2.33820824 Z M138.129384,1.71163441 L141.937844,1.71163441 L141.937844,35.249823 L140.029519,35.249823 L138.129384,35.249823 C138.129384,35.249823 138.129384,1.71163441 138.129384,1.71163441 Z M143.575892,15.9497002 L151.526156,25.3953007 L159.822867,35.249823 L143.575892,35.249823 L143.575892,15.9497002 Z M161.970347,35.249823 L152.775986,24.3284763 L143.575892,13.3988852 L143.575892,0.887195167 C143.575892,0.432104703 143.208969,0.0627559198 142.756868,0.0627559198 L137.615037,0.0627559198 C137.52822,0.0264805929 137.435671,0.00504517246 137.341483,0.000922976219 C137.203887,-0.00567253776 137.067929,0.0231828359 136.944257,0.0841913402 C136.70674,0.197139517 136.475775,0.32575204 136.249724,0.46838003 C130.94245,2.959011 124.812876,7.13562022 120.024863,12.9099927 C115.015714,18.9498346 111.485722,26.7721142 112.061495,36.1253775 C112.068047,36.2572878 112.105723,36.3859003 112.172063,36.4996729 L119.448271,52.5185275 C119.581772,52.8120279 119.872525,53 120.192763,53 L140.029519,53 L159.866275,53 C160.186513,53 160.478086,52.8120279 160.611587,52.5185275 L167.925469,36.417229 C167.97461,36.3092274 168,36.1929815 168,36.0742622 C168,35.6191718 167.633077,35.249823 167.180976,35.249823 L161.970347,35.249823 Z" id="Fill-1"></path>
                </g>
            </g>
        </g>
    </g>
</svg>