<?xml version="1.0" encoding="UTF-8"?>
<svg width="26px" height="30px" viewBox="0 0 26 30" version="1.1" xmlns="http://www.w3.org/2000/svg" xmlns:xlink="http://www.w3.org/1999/xlink">
    <!-- Generator: Sketch 50.2 (55047) - http://www.bohemiancoding.com/sketch -->
    <title>Fill 1</title>
    <desc>Created with Sketch.</desc>
    <defs></defs>
    <g id="-" stroke="none" stroke-width="1" fill="none" fill-rule="evenodd">
        <g id="Parent-Private-Charters" transform="translate(-227.000000, -1151.000000)" fill="#413F47">
            <g id="Group-22" transform="translate(0.000000, 840.000000)">
                <g id="Group-2" transform="translate(115.000000, 311.000000)">
                    <g id="Group-6">
                        <path d="M113.282217,28.7535489 L113.282217,25.4741361 C113.59747,25.6208019 113.954203,25.720518 114.362372,25.720518 C114.534101,25.720518 114.714542,25.7034831 114.903693,25.6652586 C115.934071,25.4483762 116.572458,24.5251714 117.090135,23.6771692 C117.335701,23.27415 118.637362,21.3064192 120.085449,22.1760266 C120.559987,22.4751748 120.950319,23.0194585 121.363466,23.5961499 C122.063244,24.5725365 122.856353,25.6789696 124.274574,25.6789696 C126.02547,25.6789696 127.227162,24.0531819 128.192831,22.7469012 L128.30151,22.59982 C128.518038,22.3048265 129.110381,21.6471159 129.908883,21.873139 C130.481315,22.0397479 130.894047,22.7302818 131.330837,23.4615331 C131.838145,24.3116128 132.363289,25.1903608 133.264663,25.4728897 C133.638818,25.6133232 134.037446,25.6789696 134.52028,25.6789696 C135.261124,25.6789696 135.933524,25.4799529 136.469868,25.1450731 L136.469868,28.7535489 L113.282217,28.7535489 Z M113.904426,18.5322346 L116.683626,18.5322346 L133.317343,18.5322346 L135.847659,18.5322346 C136.208125,18.5322346 136.469868,18.7944048 136.469868,19.1554601 L136.469868,23.0614223 C136.469868,23.8171872 135.595457,24.4325185 134.52028,24.4325185 C134.186776,24.4325185 133.934159,24.3934631 133.669928,24.2954089 C133.187924,24.1433419 132.804643,23.5010041 132.398548,22.8216882 C131.882529,21.9578977 131.298068,20.9786026 130.253172,20.675715 C129.17675,20.3678416 128.072122,20.8099162 127.300583,21.8590125 L127.192734,22.0052628 C126.351922,23.1428571 125.398283,24.4325185 124.274574,24.4325185 C123.547419,24.4325185 123.071637,23.8421162 122.374348,22.8694689 C121.909351,22.2204833 121.428591,21.5494772 120.736694,21.1140503 C119.16375,20.1688249 117.314131,20.9191884 116.028232,23.0273527 C115.646196,23.6534866 115.192813,24.330725 114.653565,24.4445676 C114.172805,24.5401288 113.761318,24.4084205 113.282217,23.9925213 L113.282217,19.1554601 C113.282217,18.7944048 113.54396,18.5322346 113.904426,18.5322346 Z M117.305835,12.6132539 C117.33736,12.5658888 117.367226,12.5189391 117.399995,12.471574 C117.481712,12.3552386 117.562185,12.2389031 117.628968,12.1267225 C117.874948,11.7237033 119.17578,9.75555709 120.625111,10.6255799 C121.099235,10.9247282 121.489982,11.4690118 121.903129,12.0457032 C122.602491,13.0220899 123.3956,14.128523 124.813822,14.128523 C126.565132,14.128523 127.766825,12.5023198 128.732908,11.1952081 L128.840343,11.0497888 C129.057701,10.7547954 129.647555,10.0937608 130.447716,10.3231078 C131.035081,10.4938716 131.456109,11.1943771 131.901196,11.936431 C132.144687,12.3419431 132.397718,12.7545184 132.695134,13.1118344 L132.695134,17.2857835 L117.305835,17.2857835 L117.305835,12.6132539 Z M117.928043,7.43923551 L132.072925,7.43923551 C132.433392,7.43923551 132.695134,7.70140572 132.695134,8.06246105 L132.695134,10.8495257 C132.230551,10.1091337 131.672638,9.38120629 130.792005,9.12526833 C129.715998,8.8178104 128.61137,9.25988505 127.839831,10.3085659 L127.732396,10.4535697 C126.891584,11.5915795 125.937946,12.8820719 124.813822,12.8820719 C124.086252,12.8820719 123.610884,12.2916696 122.914011,11.3190222 C122.449013,10.6704522 121.967838,9.99903054 121.275942,9.56360363 C119.983407,8.78706461 118.506283,9.15601413 117.305835,10.4818226 L117.305835,8.06246105 C117.305835,7.70140572 117.567577,7.43923551 117.928043,7.43923551 Z M135.847659,17.2857835 L133.939552,17.2857835 L133.939552,8.06246105 C133.939552,7.01419569 133.119481,6.19278443 132.072925,6.19278443 L128.630036,6.19278443 L128.630036,3.63465134 C128.893853,3.46388754 129.160573,3.10283221 129.21035,2.34125061 C129.229845,2.19666228 129.22072,1.85596565 128.50352,0.291669552 C128.423048,0.116750918 128.249659,0.00332386954 128.057604,0 C127.855593,0.000830967385 127.688012,0.10470189 127.602147,0.276712139 C127.544074,0.393047573 127.030959,1.4317568 126.896977,2.05747524 C126.790372,2.55480922 126.90071,3.05255869 127.191904,3.38785403 C127.250806,3.45599335 127.315931,3.51457655 127.385618,3.56568105 L127.385618,6.19278443 L122.822753,6.19278443 L122.822753,3.63465134 C123.08657,3.46388754 123.35329,3.10283221 123.403067,2.34125061 C123.422563,2.19666228 123.413437,1.85596565 122.696237,0.291669552 C122.615765,0.116750918 122.442376,0.00332386954 122.250321,0 C122.06034,0.000830967385 121.881144,0.10470189 121.794864,0.276712139 C121.736791,0.393047573 121.223676,1.4317568 121.089694,2.05747524 C120.983089,2.55480922 121.093427,3.05255869 121.384621,3.38785403 C121.443524,3.45599335 121.508648,3.51457655 121.578335,3.56568105 L121.578335,6.19278443 L117.928043,6.19278443 C116.881073,6.19278443 116.061417,7.01419569 116.061417,8.06246105 L116.061417,17.2857835 L113.904426,17.2857835 C112.857871,17.2857835 112.037799,18.1071948 112.037799,19.1554601 L112.037799,24.012049 C111.987608,24.1504051 111.987193,24.3016412 112.037799,24.4395817 L112.037799,29.3767745 C112.037799,29.720795 112.316134,30 112.660008,30 L137.092077,30 C137.435951,30 137.714286,29.720795 137.714286,29.3767745 L137.714286,19.1554601 C137.714286,18.1071948 136.894214,17.2857835 135.847659,17.2857835 Z" id="Fill-1"></path>
                    </g>
                </g>
            </g>
        </g>
    </g>
</svg>