<svg width="26" height="30" xmlns="http://www.w3.org/2000/svg"><path d="M1.282 28.754v-3.28a2.527 2.527 0 0 0 1.622.191c1.03-.217 1.668-1.14 2.186-1.988.246-.403 1.547-2.37 2.995-1.501.475.3.865.843 1.278 1.42.7.977 1.493 2.083 2.912 2.083 1.75 0 2.952-1.626 3.918-2.932l.109-.147c.216-.295.808-.953 1.607-.727.572.167.985.857 1.422 1.589.507.85 1.032 1.728 1.934 2.01.374.141.772.207 1.255.207.741 0 1.414-.199 1.95-.534v3.609H1.282zm.622-10.222h21.943c.361 0 .623.262.623.623v3.906c0 .756-.875 1.372-1.95 1.372-.333 0-.586-.04-.85-.138-.482-.152-.865-.794-1.271-1.473-.516-.864-1.1-1.843-2.146-2.146-1.076-.308-2.18.134-2.952 1.183l-.108.146c-.841 1.138-1.795 2.428-2.918 2.428-.728 0-1.203-.59-1.9-1.564-.466-.649-.946-1.32-1.638-1.755-1.573-.945-3.423-.195-4.709 1.913-.382.626-.835 1.304-1.374 1.418-.481.095-.893-.037-1.372-.452v-4.838c0-.36.262-.623.622-.623zm3.402-5.919c.031-.047.061-.094.094-.141a5.63 5.63 0 0 0 .229-.345c.246-.403 1.547-2.371 2.996-1.501.474.299.865.843 1.278 1.42.7.976 1.493 2.083 2.91 2.083 1.752 0 2.954-1.627 3.92-2.934l.107-.145c.218-.295.808-.956 1.608-.727.587.17 1.008.871 1.453 1.613.244.406.497.819.794 1.176v4.174H5.305v-4.673zm.622-5.174h14.145c.36 0 .622.262.622.623v2.788c-.464-.74-1.022-1.469-1.903-1.725-1.076-.307-2.18.135-2.952 1.184l-.108.145c-.84 1.138-1.794 2.428-2.918 2.428-.728 0-1.203-.59-1.9-1.563-.465-.649-.946-1.32-1.638-1.755-1.293-.777-2.77-.408-3.97.918v-2.42c0-.36.262-.623.622-.623zm17.92 9.847H21.94V8.062c0-1.048-.82-1.87-1.867-1.87H16.63V3.636c.264-.171.53-.532.58-1.294.02-.144.01-.485-.706-2.05a.5.5 0 0 0-.902-.014c-.058.116-.571 1.155-.705 1.78-.107.498.004.996.295 1.33.059.069.124.128.194.179v2.627h-4.563V3.635c.264-.171.53-.532.58-1.294.02-.144.01-.485-.707-2.05A.5.5 0 0 0 10.25 0a.51.51 0 0 0-.455.277c-.058.116-.571 1.155-.705 1.78-.107.498.003.996.295 1.33.059.069.124.128.193.179v2.627h-3.65a1.848 1.848 0 0 0-1.867 1.87v9.223H1.904a1.848 1.848 0 0 0-1.866 1.87v4.856a.623.623 0 0 0 0 .428v4.937c0 .344.278.623.622.623h24.432c.344 0 .622-.28.622-.623V19.155c0-1.048-.82-1.87-1.866-1.87z" fill="#413F47" fill-rule="evenodd"/></svg>