<svg width="26" height="30" xmlns="http://www.w3.org/2000/svg"><path d="M20.982 28.8H3.644l-1.931-2.943h21.204L20.982 28.8zM9.573 9.262l2.74-2.737 2.745 2.737v15.395H9.573V9.262zM24 19.922c-1.102 0-2 .896-2 1.998a.6.6 0 0 0 1.202 0 .8.8 0 1 1 1.272.644c-.683.499-1.074 1.217-1.074 1.97v.123h-7.14V9.013a.6.6 0 0 0-.176-.425l-3.128-3.119c.033-.074.088-.142.178-.245.203-.236.511-.59.511-1.237 0-.647-.308-1.003-.512-1.239-.16-.185-.22-.254-.22-.455 0-.2.06-.27.22-.455.204-.235.512-.592.512-1.238a.6.6 0 0 0-1.201 0c0 .2-.06.27-.22.455-.204.235-.513.592-.513 1.238s.31 1.003.513 1.24c.16.184.22.254.22.454s-.06.269-.22.453c-.17.197-.403.49-.478.955L8.548 8.588a.6.6 0 0 0-.176.425v15.644H.6a.602.602 0 0 0-.503.929l2.718 4.143a.6.6 0 0 0 .502.271h17.989c.202 0 .39-.102.501-.27l2.725-4.144c.1-.151.12-.336.067-.505v-.547c0-.5.365-.842.582-1 .512-.373.818-.977.818-1.614a2.001 2.001 0 0 0-2-1.998z" fill="#413F47" fill-rule="evenodd"/></svg>