<?xml version="1.0" encoding="UTF-8"?>
<svg width="26px" height="30px" viewBox="0 0 26 30" version="1.1" xmlns="http://www.w3.org/2000/svg" xmlns:xlink="http://www.w3.org/1999/xlink">
    <!-- Generator: Sketch 50.2 (55047) - http://www.bohemiancoding.com/sketch -->
    <title>Fill 1</title>
    <desc>Created with Sketch.</desc>
    <defs></defs>
    <g id="-" stroke="none" stroke-width="1" fill="none" fill-rule="evenodd">
        <g id="Parent-Private-Charters" transform="translate(-228.000000, -2317.000000)" fill="#413F47">
            <g id="Group-27" transform="translate(43.000000, 2317.000000)">
                <path d="M205.982225,28.8 L188.643507,28.8 L186.712577,25.857 L193.972489,25.857 L200.65865,25.857 L207.917361,25.857 L205.982225,28.8 Z M194.573276,9.2616 L197.312866,6.525 L200.057863,9.2622 L200.057863,24.657 L194.573276,24.657 L194.573276,9.2616 Z M208.999379,19.9224 C207.896934,19.9224 206.999358,20.8182 206.999358,21.9198 C206.999358,22.2516 207.268511,22.5198 207.600145,22.5198 C207.93178,22.5198 208.200932,22.2516 208.200932,21.9198 C208.200932,21.4806 208.559602,21.1224 208.999379,21.1224 C209.439756,21.1224 209.798426,21.4806 209.798426,21.9198 C209.798426,22.179 209.680071,22.4136 209.4734,22.5642 C208.790305,23.0628 208.398591,23.781 208.398591,24.534 L208.398591,24.657 L201.259437,24.657 L201.259437,9.0126 C201.259437,8.8536 201.196355,8.7006 201.083407,8.5878 L197.954507,5.469 C197.988151,5.3952 198.043423,5.3274 198.132941,5.2242 C198.336007,4.9884 198.644211,4.6332 198.644211,3.987 C198.644211,3.3402 198.336007,2.9838 198.13234,2.748 C197.97193,2.5626 197.911851,2.4936 197.911851,2.2932 C197.911851,2.0928 197.97193,2.0238 198.13234,1.8384 C198.336007,1.6032 198.644211,1.2462 198.644211,0.6 C198.644211,0.2682 198.375058,0 198.043423,0 C197.711789,0 197.442636,0.2682 197.442636,0.6 C197.442636,0.8004 197.383158,0.8694 197.222748,1.0548 C197.019081,1.29 196.710277,1.647 196.710277,2.2932 C196.710277,2.9394 197.019081,3.2964 197.222748,3.5322 C197.383158,3.717 197.442636,3.7866 197.442636,3.987 C197.442636,4.1868 197.383158,4.2558 197.223349,4.44 C197.052725,4.6374 196.81962,4.9302 196.745122,5.3952 L193.547733,8.5884 C193.434785,8.7012 193.371702,8.8536 193.371702,9.0126 L193.371702,24.657 L185.60052,24.657 C185.380031,24.657 185.176965,24.7776 185.071827,24.9714 C184.96729,25.1652 184.977503,25.4016 185.098262,25.5858 L187.816223,29.7288 C187.926768,29.898 188.116016,30 188.318481,30 L206.30665,30 C206.508515,30 206.697162,29.898 206.808308,29.7294 L209.532878,25.5864 C209.632608,25.4346 209.653035,25.2498 209.600166,25.0812 L209.600166,24.534 C209.600166,24.0336 209.964844,23.6922 210.182329,23.5338 C210.694199,23.1606 211,22.557 211,21.9198 C211,20.8182 210.102424,19.9224 208.999379,19.9224 Z" id="Fill-1"></path>
            </g>
        </g>
    </g>
</svg>