<svg width="49" height="56" xmlns="http://www.w3.org/2000/svg"><g fill="#413F47" fill-rule="evenodd"><path d="M23.952 5c.572 0 .953-.282.953-.704L25 .704C25 .282 24.619 0 24.048 0c-.572 0-.953.282-.953.704L23 4.296c0 .422.476.704.952.704M27.702 6a.88.88 0 0 0 .491-.164l2.596-1.909c.281-.218.281-.545 0-.763a.82.82 0 0 0-.982 0l-2.596 1.909c-.281.218-.281.545 0 .763.14.11.35.164.49.164M20.807 5.836c.14.11.28.164.491.164.21 0 .351-.055.491-.164.281-.218.281-.545 0-.763l-2.596-1.91a.82.82 0 0 0-.982 0c-.281.219-.281.546 0 .764l2.596 1.91zM38.428 8.403c.473 1.109 1.013 2.702 1.553 4.365l-12.022 2.91c-.27-1.732-.54-3.326-.608-4.503l11.077-2.772zm4.12 22.655c-.54 3.049-1.689 4.989-3.242 5.404-1.554.416-3.512-.762-5.336-3.256-1.959-2.632-3.647-6.443-4.593-10.6-.27-1.247-.743-3.325-1.148-5.473l12.158-2.98c.607 2.08 1.148 4.088 1.418 5.266 1.013 4.226 1.283 8.314.743 11.64zm-9.659 2.98c1.892 2.494 3.918 3.88 5.741 3.88h.27l3.715 15.657-4.255 1.04c-.337.069-.608.484-.473.83a.662.662 0 0 0 .676.555h.135l9.794-2.425c.337-.07.608-.485.472-.831-.067-.347-.472-.624-.81-.485l-4.255 1.039-3.715-15.658c1.756-.831 3.04-2.979 3.647-6.304.608-3.464.338-7.76-.675-12.194-.676-2.702-2.567-9.284-3.715-11.778a.673.673 0 0 0-.743-.346L26.54 10.066c-.337.07-.54.346-.54.693.068 2.771 1.35 9.492 2.026 12.194 1.013 4.295 2.77 8.313 4.863 11.085z"/><path d="M38.414 18.013c-.275.066-.495.464-.385.795 1.211 5.834.991 10.806.496 12.264-.11.331 0 .73.275.862.055.066.165.066.22.066.22 0 .44-.133.496-.398.605-1.723.826-6.894-.44-13.125-.056-.332-.386-.53-.662-.464M6.503 31.163c-.54-3.252-.338-7.403.677-11.623.27-1.245.81-3.252 1.42-5.258l12.169 2.975c-.406 2.145-.811 4.22-1.15 5.465-1.014 4.22-2.636 7.957-4.597 10.586-1.825 2.421-3.786 3.597-5.341 3.251-1.42-.415-2.637-2.421-3.178-5.396M10.628 8.54l11.087 2.767c-.067 1.176-.338 2.767-.608 4.497L9.073 12.898c.54-1.66 1.081-3.251 1.555-4.358M.486 53.579L10.29 56h.135c.27 0 .608-.208.676-.553.067-.346-.135-.761-.473-.83l-4.26-1.038 3.719-15.636h.27c1.893 0 3.921-1.315 5.747-3.874C18.2 31.3 19.89 27.358 20.972 22.93c.676-2.698 1.96-9.478 2.028-12.176 0-.346-.203-.623-.54-.692L10.29 7.018c-.339-.07-.609.069-.744.346-1.15 2.49-3.043 9.063-3.719 11.76-1.081 4.36-1.284 8.718-.676 12.177.541 3.252 1.826 5.466 3.651 6.296L5.084 53.233l-4.26-1.038c-.338-.07-.743.138-.811.484-.068.415.135.761.473.9"/><path d="M9.484 31.072c-.506-1.525-.731-6.43.505-12.264.056-.331-.112-.729-.393-.795a.576.576 0 0 0-.674.464c-1.293 6.231-1.012 11.402-.45 13.125.112.265.281.398.506.398.056 0 .168 0 .225-.066.224-.133.393-.53.28-.862"/></g></svg>