<svg width="16" height="30" xmlns="http://www.w3.org/2000/svg" xmlns:xlink="http://www.w3.org/1999/xlink"><defs><path id="a" d="M0 0h16v30H0z"/></defs><g fill="none" fill-rule="evenodd"><mask id="b" fill="#fff"><use xlink:href="#a"/></mask><path d="M1.718 20.573l3.344-5.666h5.875l3.343 5.666H1.718zM7.13 28.77H8.87v-6.964H7.13v6.964zM6.206 8.687h3.585l2.945 4.989H3.263l2.943-4.989zM8 1.847l3.31 5.609H4.69L8 1.848zm7.917 19.034l-3.525-5.974h1.435a.633.633 0 0 0 .545-.308.604.604 0 0 0 0-.615l-3.125-5.297h1.162c.348 0 .63-.276.63-.616a.606.606 0 0 0-.14-.387L8.545.308A.633.633 0 0 0 8 0a.634.634 0 0 0-.546.308L3.055 7.763a.604.604 0 0 0 0 .616c.113.19.32.308.546.308h1.153l-3.126 5.297a.604.604 0 0 0 0 .615c.113.19.32.308.546.308h1.435L.084 20.881a.604.604 0 0 0 0 .615c.113.191.32.308.546.308h5.243v7.58c0 .34.282.616.629.616h2.997c.348 0 .63-.275.63-.616v-7.58h5.242a.631.631 0 0 0 .545-.308.604.604 0 0 0 0-.615z" fill="#413F47" mask="url(#b)"/></g></svg>