<svg width="26" height="29" xmlns="http://www.w3.org/2000/svg" xmlns:xlink="http://www.w3.org/1999/xlink"><defs><path id="a" d="M.096.184h7.982v7.99H.096z"/><path id="c" d="M.332.184h7.982v7.99H.332z"/><path id="e" d="M.212.236h11.435v19.135H.212z"/></defs><g fill="none" fill-rule="evenodd"><g transform="translate(1.89 .288)"><mask id="b" fill="#fff"><use xlink:href="#a"/></mask><path d="M3.449 1.465c.189-.048.425-.048.614-.048.52 0 1.04.142 1.512.426A2.747 2.747 0 0 1 6.803 3.59c.331 1.512-.614 2.976-2.126 3.354-1.512.33-2.976-.614-3.354-2.126-.33-1.512.614-2.976 2.126-3.354m.614 6.709c.284 0 .567-.048.898-.095 2.126-.472 3.496-2.646 3.024-4.772A3.977 3.977 0 0 0 6.236.803a4 4 0 0 0-3.023-.52C1.087.756-.283 2.93.189 5.055a3.973 3.973 0 0 0 3.874 3.119" fill="#413F47" mask="url(#b)"/></g><path d="M8.882 9.501H3.071c-1.7 0-3.071 1.37-3.071 3.071v8.883a3.037 3.037 0 0 0 2.457 2.976v3.59c0 .332.283.615.614.615.33 0 .614-.283.614-.614v-4.11a.625.625 0 0 0-.614-.615c-1.04 0-1.843-.85-1.843-1.842v-8.883c0-1.039.85-1.842 1.843-1.842h5.811c1.04 0 1.843.85 1.843 1.842v8.883c0 1.039-.85 1.842-1.843 1.842a.625.625 0 0 0-.614.614v4.11c0 .332.284.615.614.615.331 0 .614-.283.614-.614v-3.59a3.037 3.037 0 0 0 2.457-2.977v-8.883c-.047-1.7-1.417-3.07-3.07-3.07" fill="#413F47"/><g transform="translate(15.591 .288)"><mask id="d" fill="#fff"><use xlink:href="#c"/></mask><path d="M3.638 1.465c.189-.048.425-.048.614-.048.567 0 1.087.142 1.512.426A2.747 2.747 0 0 1 6.992 3.59c.331 1.512-.614 2.976-2.126 3.354-1.512.33-2.976-.614-3.354-2.126-.33-1.512.614-2.976 2.126-3.354m.661 6.709c.284 0 .567-.048.898-.095 2.126-.472 3.496-2.646 3.024-4.772A3.977 3.977 0 0 0 6.473.803a4 4 0 0 0-3.024-.52C1.323.756-.047 2.93.425 5.055.803 6.945 2.457 8.174 4.3 8.174" fill="#413F47" mask="url(#d)"/></g><g transform="translate(13.701 9.265)"><mask id="f" fill="#fff"><use xlink:href="#e"/></mask><path d="M11.622 18.568L9.827 11.67c1.087-.331 1.795-1.418 1.795-2.93V3.307c0-1.7-1.37-3.07-3.07-3.07H3.78C2.079.236.709 1.606.709 3.306V8.74c0 1.512.661 2.599 1.748 2.93l-2.22 6.898a.62.62 0 0 0 .377.756c.047 0 .142.047.19.047a.594.594 0 0 0 .566-.425l.047-.19 2.41-7.37c.047-.189.047-.378-.095-.52a.581.581 0 0 0-.472-.236c-1.181 0-1.323-1.18-1.323-1.842v-5.48c0-1.04.85-1.843 1.843-1.843h4.772c1.039 0 1.842.85 1.842 1.842V8.74c0 1.607-.85 1.843-1.323 1.843a.581.581 0 0 0-.472.236c-.095.142-.142.331-.095.52l1.89 7.418.047.141c.095.331.426.52.756.426a.607.607 0 0 0 .425-.756" fill="#413F47" mask="url(#f)"/></g></g></svg>