<svg width="54" height="50" xmlns="http://www.w3.org/2000/svg"><g fill="#413F47" fill-rule="evenodd"><path d="M27 5.394c.524 0 .95.432.95.964a.958.958 0 0 1-.95.964.958.958 0 0 1-.95-.964c0-.532.426-.964.95-.964m-7.827 12.683l.426-.431C20.199 21.246 23.285 24 27 24c3.715 0 6.801-2.753 7.402-6.353l.424.43a.68.68 0 0 0 .972 0 .704.704 0 0 0 0-.985l-1.556-1.578a.68.68 0 0 0-.97 0l-1.556 1.578a.704.704 0 0 0 0 .985.68.68 0 0 0 .971 0l.29-.294c-.582 2.539-2.691 4.486-5.291 4.781V11.768h2.179c.379 0 .687-.311.687-.697a.692.692 0 0 0-.687-.697h-2.18V8.6a2.35 2.35 0 0 0 1.638-2.24C29.324 5.058 28.28 4 27 4s-2.324 1.058-2.324 2.358A2.35 2.35 0 0 0 26.313 8.6v1.775h-2.179a.692.692 0 0 0-.687.697c0 .386.308.697.687.697h2.18v10.797c-2.6-.296-4.708-2.243-5.29-4.78l.288.293a.68.68 0 0 0 .971 0 .704.704 0 0 0 0-.986l-1.555-1.578a.68.68 0 0 0-.971 0L18.2 17.092a.704.704 0 0 0 0 .985.68.68 0 0 0 .972 0"/><path d="M1.35 14.108c0-1.562.803-2.973 2-3.51l17.697-7.955A14.485 14.485 0 0 1 27 1.349c2.017 0 4.033.431 5.953 1.294l17.698 7.955c1.196.537 1.999 1.948 1.999 3.51v7.084c0 2.06-1.361 3.735-3.034 3.735H4.384c-1.673 0-3.034-1.676-3.034-3.735v-7.084zm43.757 28.106c-4.117 4.07-10.902 6.447-18.162 6.439-11.928-.064-21.63-6.614-21.86-14.67h43.834c-.039 2.956-1.352 5.8-3.812 8.231zm4.382-9.577H4.511v-6.363H49.49v6.363h-.001zM3.161 26.068v7.242c0 .336.25.602.572.653.211 8.804 10.523 15.969 23.204 16.036l.178.001c7.54 0 14.61-2.547 18.942-6.829 2.727-2.697 4.18-5.88 4.213-9.209a.664.664 0 0 0 .569-.652v-7.242C52.663 25.452 54 23.501 54 21.192v-7.084c0-2.115-1.097-3.975-2.795-4.738L33.507 1.415c-4.196-1.887-8.818-1.887-13.014 0L2.795 9.37C1.097 10.133 0 11.993 0 14.108v7.084c0 2.31 1.337 4.26 3.161 4.876z"/></g></svg>