<svg width="33" height="30" xmlns="http://www.w3.org/2000/svg"><g fill="#413F47" fill-rule="evenodd"><path d="M6.125 1.591a1.439 1.439 0 0 1 0 2.874A1.439 1.439 0 0 1 4.688 3.03c0-.793.645-1.438 1.437-1.438m0 4.466a3.029 3.029 0 1 0 0-6.057 3.029 3.029 0 0 0 0 6.057M12.227 16.21l-1.709-6.829a2.144 2.144 0 0 0-2.082-1.625H4.93a3.57 3.57 0 0 0-3.468 2.707L.01 20.264a.796.796 0 0 0 1.574.232l.065-.434 1.367-9.25A1.98 1.98 0 0 1 4.93 9.348h3.506c.255 0 .477.173.538.42l1.71 6.83c.007.029.019.055.03.083a.794.794 0 0 0 1.513-.47"/><path d="M4.456 19.015H4.45a.79.79 0 0 0-.52.197.79.79 0 0 0-.276.598v8.995a.796.796 0 0 0 1.592 0V19.81a.795.795 0 0 0-.789-.795M7.006 19.81v8.995a.796.796 0 0 0 1.591 0V19.81a.796.796 0 0 0-1.59 0zM26.018 3.183c.792 0 1.437.645 1.437 1.437s-.645 1.437-1.437 1.437A1.439 1.439 0 0 1 24.58 4.62c0-.792.645-1.437 1.438-1.437m0 4.466a3.029 3.029 0 1 0 0-6.058 3.029 3.029 0 0 0 0 6.058M32.133 20.255l-1.439-8.93-.013-.066a3.57 3.57 0 0 0-3.468-2.707h-2.391c-1.643 0-3.07 1.113-3.46 2.678l-1.438 4.951a.794.794 0 1 0 1.506.499c.007-.019.016-.036.022-.055l1.446-4.98a1.981 1.981 0 0 1 1.924-1.502h2.391a1.98 1.98 0 0 1 1.916 1.472l1.36 8.446.073.447a.796.796 0 0 0 1.57-.253"/><path d="M27.694 19.015h-.008a.796.796 0 0 0-.788.795v8.995a.796.796 0 0 0 1.592 0V19.81a.79.79 0 0 0-.276-.598.789.789 0 0 0-.52-.197M23.545 19.81v8.995a.796.796 0 0 0 1.592 0V19.81a.796.796 0 0 0-1.592 0zM15.97 15.191c.7 0 1.269.57 1.269 1.269 0 .7-.57 1.269-1.269 1.269-.7 0-1.269-.57-1.269-1.269 0-.7.57-1.269 1.269-1.269m0 4.129a2.864 2.864 0 0 0 2.86-2.86 2.863 2.863 0 0 0-2.86-2.86 2.863 2.863 0 0 0-2.86 2.86 2.864 2.864 0 0 0 2.86 2.86"/><path d="M19.933 18.864a.795.795 0 0 0-1.054.395l-.977 2.148c-.06.097-.468.329-1.117.329h-1.63c-.648 0-1.055-.232-1.113-.323l-.98-2.154a.795.795 0 1 0-1.449.659l.981 2.154c.347.762 1.352 1.255 2.562 1.255h1.629c1.21 0 2.215-.492 2.562-1.255l.98-2.154a.795.795 0 0 0-.394-1.054M14.828 24.012a.796.796 0 0 0-.796.796v4.233a.796.796 0 0 0 1.591 0v-4.233a.796.796 0 0 0-.795-.796M17.113 24.012a.796.796 0 0 0-.796.796v4.233a.796.796 0 0 0 1.592 0v-4.233a.795.795 0 0 0-.796-.796"/></g></svg>