<svg width="59" height="52" xmlns="http://www.w3.org/2000/svg"><g fill="#413F47" fill-rule="evenodd"><path d="M30.5 20.486a4.014 4.014 0 1 1 0 8.028 4.014 4.014 0 0 1 0-8.028zm0 9.514a5.5 5.5 0 1 0 0-11 5.5 5.5 0 0 0 0 11z"/><path d="M57.401 6.958l-4.214 37.059-3.197-.366V11.865H9.373L10.536 1.61 57.4 6.958zM1.453 50.535v-9.374l14.532-10.693 13.733 12.084L48.61 31.42v19.115H1.453zM48.537 13.33v16.405l-18.674 11.06-13.805-12.232L1.453 39.33v-26h47.084zM7.92 11.865H0V52h50.063v-6.885l4.432.513L59 5.713 9.3 0 7.92 11.865z"/></g></svg>