<svg width="29" height="30" xmlns="http://www.w3.org/2000/svg"><path d="M22.61 22.373c0 3.645-2.997 6.61-6.68 6.61h-3.084c-3.683 0-6.68-2.965-6.68-6.61V7.627c0-3.645 2.997-6.61 6.68-6.61h3.083c3.684 0 6.68 2.965 6.68 6.61v14.746zM15.93 0h-3.084c-4.25 0-7.708 3.422-7.708 7.627v14.746c0 4.205 3.458 7.627 7.708 7.627h3.083c4.25 0 7.708-3.422 7.708-7.627V7.627C23.637 3.422 20.179 0 15.929 0zm3.596 9.153H9.25V7.627c0-1.962 1.614-3.56 3.597-3.56h3.083c1.983 0 3.597 1.598 3.597 3.56v1.526zM9.25 12.203h10.277V10.17H9.25v2.034zm0 5.085h10.277V13.22H9.25v4.068zm0 3.051h10.277v-2.034H9.25v2.034zm10.277 2.034c0 1.962-1.614 3.56-3.597 3.56h-3.083c-1.983 0-3.597-1.598-3.597-3.56v-1.017h10.277v1.017zM15.93 3.05h-3.083c-2.55 0-4.624 2.053-4.624 4.576v14.746c0 2.523 2.074 4.576 4.624 4.576h3.083c2.55 0 4.625-2.053 4.625-4.576V7.627c0-2.523-2.074-4.576-4.625-4.576zm11.819 21.356h-2.056v-4.935l1.026-1.34 1.03 1.36v4.915zm.925-5.39l-1.439-1.898v-6.95a.51.51 0 0 0 .514-.508.51.51 0 0 0-.514-.508v-.509a.51.51 0 0 0-.514-.508.51.51 0 0 0-.514.508v.509a.51.51 0 0 0-.514.508c0 .281.23.508.514.508v6.948l-1.437 1.877a.501.501 0 0 0-.104.307v5.614c0 .281.23.509.514.509h3.083a.51.51 0 0 0 .514-.509v-5.593a.504.504 0 0 0-.103-.305zm-25.59 5.39H1.028v-4.935l1.025-1.34 1.03 1.36v4.915zm-.514-7.288v-6.95a.51.51 0 0 0 .514-.508.51.51 0 0 0-.514-.508v-.509a.51.51 0 0 0-.514-.508.51.51 0 0 0-.513.508v.509a.51.51 0 0 0-.514.508c0 .281.23.508.514.508v6.948L.104 18.994a.501.501 0 0 0-.104.307v5.614c0 .281.23.509.514.509h3.083a.51.51 0 0 0 .514-.509v-5.593a.504.504 0 0 0-.103-.305l-1.439-1.898z" fill="#413F47" fill-rule="evenodd"/></svg>