<?xml version="1.0" encoding="UTF-8"?>
<svg width="29px" height="30px" viewBox="0 0 29 30" version="1.1" xmlns="http://www.w3.org/2000/svg" xmlns:xlink="http://www.w3.org/1999/xlink">
    <!-- Generator: Sketch 50.2 (55047) - http://www.bohemiancoding.com/sketch -->
    <title>Fill 1</title>
    <desc>Created with Sketch.</desc>
    <defs></defs>
    <g id="-" stroke="none" stroke-width="1" fill="none" fill-rule="evenodd">
        <g id="Parent-Private-Charters" transform="translate(-226.000000, -1538.000000)" fill="#413F47">
            <g id="Group-32" transform="translate(0.000000, 1230.000000)">
                <g id="Group-7" transform="translate(115.000000, 308.000000)">
                    <path d="M133.609329,22.3728814 C133.609329,26.0176271 130.612566,28.9830508 126.9293,28.9830508 L123.84621,28.9830508 C120.162945,28.9830508 117.166181,26.0176271 117.166181,22.3728814 L117.166181,7.62711864 C117.166181,3.98237288 120.162945,1.01694915 123.84621,1.01694915 L126.9293,1.01694915 C130.612566,1.01694915 133.609329,3.98237288 133.609329,7.62711864 L133.609329,22.3728814 Z M126.9293,0 L123.84621,0 C119.59617,0 116.138484,3.42152542 116.138484,7.62711864 L116.138484,22.3728814 C116.138484,26.5784746 119.59617,30 123.84621,30 L126.9293,30 C131.17934,30 134.637026,26.5784746 134.637026,22.3728814 L134.637026,7.62711864 C134.637026,3.42152542 131.17934,0 126.9293,0 Z M130.526239,9.15254237 L120.249271,9.15254237 L120.249271,7.62711864 C120.249271,5.66491525 121.863269,4.06779661 123.84621,4.06779661 L126.9293,4.06779661 C128.912241,4.06779661 130.526239,5.66491525 130.526239,7.62711864 L130.526239,9.15254237 Z M120.249271,12.2033898 L130.526239,12.2033898 L130.526239,10.1694915 L120.249271,10.1694915 L120.249271,12.2033898 Z M120.249271,17.2881356 L130.526239,17.2881356 L130.526239,13.220339 L120.249271,13.220339 L120.249271,17.2881356 Z M120.249271,20.3389831 L130.526239,20.3389831 L130.526239,18.3050847 L120.249271,18.3050847 L120.249271,20.3389831 Z M130.526239,22.3728814 C130.526239,24.3350847 128.912241,25.9322034 126.9293,25.9322034 L123.84621,25.9322034 C121.863269,25.9322034 120.249271,24.3350847 120.249271,22.3728814 L120.249271,21.3559322 L130.526239,21.3559322 L130.526239,22.3728814 Z M126.9293,3.05084746 L123.84621,3.05084746 C121.29598,3.05084746 119.221574,5.1040678 119.221574,7.62711864 L119.221574,22.3728814 C119.221574,24.8964407 121.29598,26.9491525 123.84621,26.9491525 L126.9293,26.9491525 C129.47953,26.9491525 131.553936,24.8964407 131.553936,22.3728814 L131.553936,7.62711864 C131.553936,5.1040678 129.47953,3.05084746 126.9293,3.05084746 Z M138.747813,24.4067797 L136.69242,24.4067797 L136.69242,19.4720339 L137.718061,18.1327119 L138.747813,19.4913559 L138.747813,24.4067797 Z M139.672741,19.0169492 L138.233965,17.1188136 L138.233965,10.1694915 C138.518123,10.1694915 138.747813,9.94220339 138.747813,9.66101695 C138.747813,9.37983051 138.518123,9.15254237 138.233965,9.15254237 L138.233965,8.6440678 C138.233965,8.36288136 138.004275,8.13559322 137.720117,8.13559322 C137.435958,8.13559322 137.206268,8.36288136 137.206268,8.6440678 L137.206268,9.15254237 C136.92211,9.15254237 136.69242,9.37983051 136.69242,9.66101695 C136.69242,9.94220339 136.92211,10.1694915 137.206268,10.1694915 L137.206268,17.1172881 L135.769034,18.9940678 C135.700692,19.0825424 135.664723,19.190339 135.664723,19.3011864 L135.664723,24.9152542 C135.664723,25.1964407 135.894413,25.4237288 136.178571,25.4237288 L139.261662,25.4237288 C139.54582,25.4237288 139.77551,25.1964407 139.77551,24.9152542 L139.77551,19.3220339 C139.77551,19.2116949 139.739541,19.1049153 139.672741,19.0169492 Z M114.08309,24.4067797 L112.027697,24.4067797 L112.027697,19.4720339 L113.053338,18.1327119 L114.08309,19.4913559 L114.08309,24.4067797 Z M113.569242,17.1188136 L113.569242,10.1694915 C113.8534,10.1694915 114.08309,9.94220339 114.08309,9.66101695 C114.08309,9.37983051 113.8534,9.15254237 113.569242,9.15254237 L113.569242,8.6440678 C113.569242,8.36288136 113.339552,8.13559322 113.055394,8.13559322 C112.771235,8.13559322 112.541545,8.36288136 112.541545,8.6440678 L112.541545,9.15254237 C112.257387,9.15254237 112.027697,9.37983051 112.027697,9.66101695 C112.027697,9.94220339 112.257387,10.1694915 112.541545,10.1694915 L112.541545,17.1172881 L111.104311,18.9940678 C111.035969,19.0825424 111,19.190339 111,19.3011864 L111,24.9152542 C111,25.1964407 111.22969,25.4237288 111.513848,25.4237288 L114.596939,25.4237288 C114.881097,25.4237288 115.110787,25.1964407 115.110787,24.9152542 L115.110787,19.3220339 C115.110787,19.2116949 115.074818,19.1049153 115.008017,19.0169492 L113.569242,17.1188136 Z" id="Fill-1"></path>
                </g>
            </g>
        </g>
    </g>
</svg>