<?xml version="1.0" encoding="UTF-8"?>
<svg width="30px" height="30px" viewBox="0 0 30 30" version="1.1" xmlns="http://www.w3.org/2000/svg" xmlns:xlink="http://www.w3.org/1999/xlink">
    <!-- Generator: Sketch 50.2 (55047) - http://www.bohemiancoding.com/sketch -->
    <title>Fill 1</title>
    <desc>Created with Sketch.</desc>
    <defs></defs>
    <g id="-" stroke="none" stroke-width="1" fill="none" fill-rule="evenodd">
        <g id="Parent-Private-Charters" transform="translate(-226.000000, -1928.000000)" fill="#413F47">
            <g id="Group-24" transform="translate(0.000000, 1620.000000)">
                <g id="Group-18" transform="translate(66.000000, 308.000000)">
                    <path d="M188.30081,22.7402648 C187.0392,27.0667459 182.492877,29.5602863 178.165398,28.2987675 C177.869719,28.2123339 177.582958,28.1066929 177.302372,27.9900761 C180.124701,25.9993598 181.976296,22.7203713 181.976296,19.0119589 C181.976296,16.4937233 181.116014,14.177852 179.684955,12.3229598 C179.936728,12.2989504 180.188501,12.2749411 180.441647,12.2749411 C181.210687,12.2749411 181.983843,12.3846981 182.741906,12.6055839 C184.837729,13.2167928 186.570642,14.607962 187.620268,16.5218485 C188.670581,18.435735 188.912063,20.6439073 188.30081,22.7402648 Z M173.287036,24.3825029 C172.236723,22.4686164 171.995241,20.2597581 172.606494,18.1640866 C173.217747,16.0684152 174.609016,14.3356276 176.523041,13.2860769 C177.045796,12.9993369 177.593249,12.7853109 178.151677,12.6199895 C179.67192,14.321222 180.604236,16.5575195 180.604236,19.0119589 C180.604236,22.5111472 178.71971,25.5699357 175.917962,27.2526467 C174.834034,26.5316809 173.931218,25.5569021 173.287036,24.3825029 Z M170.988148,28.6280383 C165.68582,28.6280383 161.372061,24.3139048 161.372061,19.0119589 C161.372061,13.710013 165.68582,9.39656552 170.988148,9.39656552 C173.27949,9.39656552 175.384917,10.2053369 177.03825,11.5478014 C176.63898,11.7021471 176.244513,11.8736423 175.86308,12.0828665 C173.627307,13.3087142 172.003473,15.3323577 171.289316,17.7806233 C170.575844,20.227517 170.857802,22.8068049 172.083739,25.0424165 C172.709398,26.1818307 173.542925,27.1600393 174.533553,27.9420575 C173.434532,28.3797133 172.24084,28.6280383 170.988148,28.6280383 Z M167.396779,4.14949809 L174.579517,4.14949809 L170.988148,7.74060778 L167.396779,4.14949809 Z M168.803142,1.37196168 L173.173841,1.37196168 L174.579517,2.77753641 L167.396779,2.77753641 L168.803142,1.37196168 Z M181.262139,7.47376123 L186.747638,9.07278257 L183.205663,11.0154803 L181.262139,7.47376123 Z M182.907926,5.46520934 L186.43961,6.49486658 L187.131129,7.75569936 L181.647002,6.15667802 L182.907926,5.46520934 Z M184.550968,11.8427732 L188.859239,9.4795692 C189.191964,9.2970983 189.313391,8.88002195 189.130907,8.54800723 L187.506387,5.58594197 C187.418575,5.42610843 187.271765,5.30811973 187.096827,5.25735714 L183.019063,4.06855235 C182.844811,4.01778977 182.656839,4.03768321 182.49768,4.12548876 L179.534714,5.74989139 C179.515506,5.76086708 179.504529,5.77870258 179.486692,5.79036426 C179.430438,5.82877918 179.374183,5.86856607 179.330963,5.92207258 C179.217082,6.06407061 179.163572,6.24585553 179.183467,6.42695447 C179.193071,6.5120161 179.219826,6.59364782 179.25893,6.66910571 C179.260988,6.67322159 179.260988,6.67733748 179.263046,6.68145336 L181.625049,10.9873551 C180.605608,10.8590767 179.581364,10.8899458 178.58319,11.0909382 C176.957984,9.53238973 174.858732,8.4739213 172.52417,8.14533647 L176.720618,3.94850571 C176.988856,3.6802872 176.988856,3.24674731 176.720618,2.9785288 L173.942881,0.200992386 C173.813907,0.072027988 173.639656,0 173.457858,0 L168.519125,0 C168.336641,0 168.162389,0.072027988 168.034102,0.200992386 L165.255679,2.9785288 C165.192564,3.04095306 165.142484,3.11641095 165.108182,3.19941463 C165.073194,3.28241831 165.054672,3.37159582 165.054672,3.46351725 C165.054672,3.5547527 165.073194,3.64461619 165.108182,3.72761988 C165.142484,3.81062356 165.192564,3.88608145 165.255679,3.94850571 L169.452126,8.14533647 C164.119612,8.89579951 160,13.4760936 160,19.0119589 C160,25.0705417 164.929128,30 170.988148,30 C172.75056,30 174.41144,29.5726339 175.889835,28.8317746 C176.485309,29.1548716 177.115771,29.4217182 177.781907,29.6158507 C178.670316,29.8751515 179.566958,29.998628 180.449879,29.998628 C184.583898,29.998628 188.403715,27.2883177 189.617989,23.1244141 C190.946143,18.5701873 188.704196,13.817026 184.550968,11.8427732 Z" id="Fill-1"></path>
                </g>
            </g>
        </g>
    </g>
</svg>