<svg width="30" height="30" xmlns="http://www.w3.org/2000/svg"><path d="M28.3 22.74c-1.26 4.327-5.807 6.82-10.135 5.559a8.365 8.365 0 0 1-.863-.309c2.823-1.99 4.674-5.27 4.674-8.978 0-2.518-.86-4.834-2.291-6.689.252-.024.504-.048.757-.048.769 0 1.542.11 2.3.33a8.121 8.121 0 0 1 4.878 3.917 8.117 8.117 0 0 1 .68 6.218zm-15.013 1.643a8.117 8.117 0 0 1-.68-6.219 8.12 8.12 0 0 1 3.916-4.878c.523-.287 1.07-.5 1.629-.666a9.564 9.564 0 0 1 2.452 6.392c0 3.5-1.884 6.558-4.686 8.24a8.132 8.132 0 0 1-2.631-2.87zm-2.299 4.245c-5.302 0-9.616-4.314-9.616-9.616s4.314-9.615 9.616-9.615a9.57 9.57 0 0 1 6.05 2.15c-.399.155-.793.327-1.175.536a9.483 9.483 0 0 0-4.574 5.698 9.484 9.484 0 0 0 .795 7.261 9.523 9.523 0 0 0 2.45 2.9 9.557 9.557 0 0 1-3.546.686zM7.397 4.149h7.183l-3.592 3.592-3.591-3.592zm1.406-2.777h4.37l1.407 1.406H7.397l1.406-1.406zm12.46 6.102l5.485 1.599-3.542 1.942-1.944-3.541zm1.645-2.009l3.532 1.03.691 1.26-5.484-1.598 1.26-.692zm1.643 6.378l4.308-2.363a.686.686 0 0 0 .272-.932l-1.625-2.962a.685.685 0 0 0-.41-.329L23.02 4.07a.684.684 0 0 0-.521.056L19.535 5.75c-.02.01-.03.029-.048.04a.7.7 0 0 0-.156.132.688.688 0 0 0-.072.747l.004.012 2.362 4.306a9.425 9.425 0 0 0-3.042.104 10.947 10.947 0 0 0-6.059-2.946l4.197-4.196a.685.685 0 0 0 0-.97L13.943.2A.685.685 0 0 0 13.458 0H8.519a.683.683 0 0 0-.485.201L5.256 2.979a.678.678 0 0 0 0 .97l4.196 4.196C4.12 8.895 0 13.476 0 19.012 0 25.071 4.93 30 10.988 30c1.763 0 3.423-.427 4.902-1.168a9.51 9.51 0 0 0 4.56 1.167c4.134 0 7.954-2.71 9.168-6.875 1.328-4.554-.914-9.307-5.067-11.281z" fill="#413F47" fill-rule="evenodd"/></svg>