<svg width="30" height="27" xmlns="http://www.w3.org/2000/svg"><g fill="#2C3140" fill-rule="evenodd"><path d="M10.053 20.737c-4.933-10.734.85-17.687.503-17.48C-3.36 11.551.488 21.141.488 21.141c3.836-6.518 9.817.146 9.565-.404"/><path d="M11.657 21.14c6.697-3.91 13.173-.452 12.714-.73C9.343 11.28 14.197-.333 13.858.006c-9.456 9.47-2.388 21.243-2.201 21.134M17.416 24.744c-2.285.773-4.204 1.095-5.775 1.048.92-.223 1.91-.516 2.99-.904 4.892-1.756 7.703-2.48 9.671-1.736.096.036-3.418-3.064-12.432.573-1.313.53-2.506.887-3.593 1.1a4.166 4.166 0 0 1-1.261-1.377c-.071-.125-.151-.152-.151-.152s.17.786.953 1.618c-3.518.571-5.79-.513-6.848-2.74-.073-.154-.157-.188-.157-.188s.943 5.317 8.867 4.19c1.917.811 5.104 1.099 10.375-.482 4.658-1.397 7.336-1.97 9.216-1.363.092.03-3.272-2.486-11.855.413"/></g></svg>