<svg width="56" height="54" xmlns="http://www.w3.org/2000/svg" xmlns:xlink="http://www.w3.org/1999/xlink"><defs><path id="a" d="M0 54h56V0H0z"/></defs><g fill="none" fill-rule="evenodd"><path d="M0 0v54h26V0H0zm1.158 5.315h23.684V1.174H1.158v4.141zm0 42.198h23.684V6.487H1.158v41.026zm0 5.314h23.684v-4.141H1.158v4.141z" fill="#413F47"/><path d="M13.5 11.26a4.245 4.245 0 0 1 4.24 4.24 4.245 4.245 0 0 1-4.24 4.24 4.245 4.245 0 0 1-4.24-4.24 4.246 4.246 0 0 1 4.24-4.24m0 9.74c3.033 0 5.5-2.467 5.5-5.5 0-3.032-2.468-5.5-5.5-5.5A5.507 5.507 0 0 0 8 15.5c0 3.033 2.468 5.5 5.5 5.5M13.5 43.845c-4.05 0-7.345-3.295-7.345-7.345s3.295-7.345 7.345-7.345 7.345 3.295 7.345 7.345-3.295 7.345-7.345 7.345M13.5 28C8.813 28 5 31.813 5 36.5c0 4.687 3.813 8.5 8.5 8.5 4.687 0 8.5-3.813 8.5-8.5 0-4.687-3.813-8.5-8.5-8.5" fill="#413F47"/><path d="M14 39.709A2.712 2.712 0 0 1 11.291 37 2.712 2.712 0 0 1 14 34.291 2.712 2.712 0 0 1 16.709 37 2.712 2.712 0 0 1 14 39.709M14 33c-2.206 0-4 1.794-4 4s1.795 4 4 4 4-1.794 4-4-1.794-4-4-4" fill="#413F47"/><mask id="b" fill="#fff"><use xlink:href="#a"/></mask><path d="M31.158 5.314h23.684V1.173H31.158v4.14zm0 47.512h23.684v-4.141H31.158v4.141zm0-5.314h23.684V6.487H31.158v41.025zM30 .001V54h26V0H30z" fill="#413F47" mask="url(#b)"/><path d="M43.5 11.26a4.245 4.245 0 0 1 4.24 4.24 4.245 4.245 0 0 1-4.24 4.24 4.244 4.244 0 0 1-4.24-4.24 4.245 4.245 0 0 1 4.24-4.24m0 9.74c3.033 0 5.5-2.467 5.5-5.5 0-3.032-2.467-5.5-5.5-5.5a5.506 5.506 0 0 0-5.5 5.5c0 3.033 2.467 5.5 5.5 5.5M42.5 43.845c-4.05 0-7.345-3.295-7.345-7.345s3.295-7.345 7.345-7.345 7.345 3.295 7.345 7.345-3.295 7.345-7.345 7.345M42.5 28c-4.686 0-8.5 3.813-8.5 8.5 0 4.687 3.814 8.5 8.5 8.5s8.5-3.813 8.5-8.5c0-4.687-3.814-8.5-8.5-8.5" fill="#413F47" mask="url(#b)"/><path d="M43 39.709A2.712 2.712 0 0 1 40.291 37 2.712 2.712 0 0 1 43 34.291 2.712 2.712 0 0 1 45.709 37 2.712 2.712 0 0 1 43 39.709M43 33c-2.206 0-4 1.794-4 4s1.794 4 4 4 4-1.794 4-4-1.794-4-4-4" fill="#413F47" mask="url(#b)"/></g></svg>