<svg width="15" height="30" xmlns="http://www.w3.org/2000/svg"><path d="M10.89 5.519l-2.288-1.25 3.69-2.626 1.23 5.351-2.632-1.475zm-2.017 4.626H6.117L5.059 6.344l2.436-1.326L9.93 6.344l-1.058 3.8zm1.451 16.079L7.445 28.65l-2.878-2.401 1.648-14.904H8.8l1.525 14.879zM2.672 1.618l3.69 2.625-2.287 1.25-2.633 1.451 1.23-5.326zm12.303 6.376L13.252.492a.582.582 0 0 0-.369-.425.532.532 0 0 0-.541.075L7.495 3.593 2.647.117a.539.539 0 0 0-.54-.075.637.637 0 0 0-.37.425L.015 7.97a.619.619 0 0 0 .221.625.598.598 0 0 0 .37.125.49.49 0 0 0 .27-.075l3.15-1.725 1.082 3.851-1.722 15.654c-.025.2.049.4.221.525l3.494 2.926c.098.1.246.125.37.125.122 0 .27-.05.368-.125l3.445-2.876c.049-.025.098-.075.147-.125a.559.559 0 0 0 .148-.475L9.955 10.745l1.083-3.851 3.15 1.725c.098.05.196.075.27.075.123 0 .246-.05.369-.125.123-.1.221-.35.148-.575z" fill="#413F47" fill-rule="evenodd"/></svg>