<?xml version="1.0" encoding="UTF-8"?>
<svg width="15px" height="30px" viewBox="0 0 15 30" version="1.1" xmlns="http://www.w3.org/2000/svg" xmlns:xlink="http://www.w3.org/1999/xlink">
    <!-- Generator: Sketch 50.2 (55047) - http://www.bohemiancoding.com/sketch -->
    <title>Fill 1</title>
    <desc>Created with Sketch.</desc>
    <defs></defs>
    <g id="-" stroke="none" stroke-width="1" fill="none" fill-rule="evenodd">
        <g id="Parent-Private-Charters" transform="translate(-1192.000000, -1148.000000)" fill="#413F47">
            <g id="Group-22" transform="translate(0.000000, 840.000000)">
                <g id="Group-12" transform="translate(1075.000000, 308.000000)">
                    <path d="M127.890152,5.51862464 L125.601891,4.26829904 L129.292634,1.64261526 L130.522882,6.99400886 L127.890152,5.51862464 Z M125.872546,10.1448294 L123.116791,10.1448294 L122.058778,6.34383954 L124.494668,5.0184944 L126.930559,6.34383954 L125.872546,10.1448294 Z M127.324238,26.2240167 L124.445459,28.6496483 L121.566679,26.2490232 L123.215211,11.345142 L125.798731,11.345142 L127.324238,26.2240167 Z M119.672098,1.61760875 L123.362841,4.24329252 L121.07458,5.49361813 L118.44185,6.94399583 L119.672098,1.61760875 Z M131.974574,7.99426934 L130.252227,0.492315707 C130.203017,0.29226361 130.079993,0.142224538 129.883153,0.0672050013 C129.710918,-0.00781453504 129.489474,0.0171919771 129.341844,0.142224538 L124.494668,3.59312321 L119.647493,0.117218026 C119.475258,-0.00781453504 119.278419,-0.0328210471 119.106184,0.0421984892 C118.933949,0.117218026 118.78632,0.267257098 118.73711,0.467309195 L117.014763,7.96926283 C116.965553,8.19432144 117.039368,8.44438656 117.236208,8.59442563 C117.334627,8.66944517 117.457652,8.71945819 117.605282,8.71945819 C117.703702,8.71945819 117.802121,8.69445168 117.875936,8.64443866 L121.02537,6.91898932 L122.107988,10.7699922 L120.385641,26.4240688 C120.361036,26.6241209 120.434851,26.824173 120.607086,26.9492055 L124.100989,29.8749674 C124.199409,29.9749935 124.347039,30 124.470063,30 C124.593088,30 124.740718,29.949987 124.839138,29.8749674 L128.283831,26.9992185 C128.333041,26.974212 128.382251,26.924199 128.431461,26.874186 C128.554486,26.7491534 128.603695,26.5741078 128.579091,26.3990623 L126.955164,10.7449857 L128.037782,6.89398281 L131.187215,8.61943214 C131.285635,8.66944517 131.384055,8.69445168 131.45787,8.69445168 C131.580895,8.69445168 131.703919,8.64443866 131.826944,8.56941912 C131.949969,8.46939307 132.048389,8.21932795 131.974574,7.99426934 Z" id="Fill-1"></path>
                </g>
            </g>
        </g>
    </g>
</svg>