<?xml version="1.0" encoding="UTF-8"?>
<svg width="30px" height="31px" viewBox="0 0 30 31" version="1.1" xmlns="http://www.w3.org/2000/svg" xmlns:xlink="http://www.w3.org/1999/xlink">
    <!-- Generator: Sketch 50.2 (55047) - http://www.bohemiancoding.com/sketch -->
    <title>Fill 1</title>
    <desc>Created with Sketch.</desc>
    <defs></defs>
    <g id="-" stroke="none" stroke-width="1" fill="none" fill-rule="evenodd">
        <g id="Parent-Private-Charters" transform="translate(-1185.000000, -1538.000000)" fill="#413F47">
            <g id="Group-32" transform="translate(0.000000, 1230.000000)">
                <g id="Group-21" transform="translate(1075.000000, 307.000000)">
                    <g id="Group-10">
                        <path d="M135.724303,15.7257518 L135.725404,15.7257518 C135.387984,15.6640192 135.052764,15.6347966 134.723413,15.6351619 C133.543544,15.6351619 132.431159,16.0168812 131.523426,16.6725618 C131.692869,15.3440324 131.778325,14.0556841 131.778691,12.8367392 C131.777224,10.2472577 131.413398,7.96716965 130.713251,6.22989015 C130.501264,5.70607627 130.253333,5.23741992 129.975696,4.81880715 C135.30693,6.90493062 138.856807,11.9604286 138.896417,17.5276861 C138.109348,16.6199612 137.011267,15.9591667 135.724303,15.7257518 M130.470823,16.2375114 C129.46003,14.565252 127.742123,13.3116054 125.63875,12.9298861 L125.63985,12.9298861 C125.201938,12.8495241 124.765859,12.8115348 124.336749,12.8115348 C122.702463,12.8122654 121.162802,13.3685893 119.944423,14.3263578 C120.657039,11.4702206 121.703407,8.9888624 122.877775,7.18217939 C123.546747,6.15135459 124.257529,5.34225575 124.949606,4.80675286 C125.644251,4.26905828 126.304421,4.01372641 126.897106,4.01518754 C127.020704,4.01518754 127.142836,4.0257807 127.2646,4.04806288 C127.737355,4.13463463 128.173433,4.38229559 128.58824,4.81515434 C129.208432,5.46206813 129.746103,6.53161278 130.11103,7.91164684 C130.477791,9.29058504 130.678409,10.9730723 130.677676,12.8367392 C130.678042,13.9165118 130.609825,15.0580169 130.470823,16.2375114 M118.805264,14.3544845 C118.014894,13.1640316 116.747003,12.2804153 115.211742,12.0009748 C114.875422,11.9396075 114.541303,11.910385 114.212319,11.910385 C113.276346,11.9107503 112.384384,12.1532973 111.600983,12.5784851 C112.514584,10.2129212 114.068549,8.20460271 116.032553,6.70694797 C118.386423,4.91304982 121.326377,3.85994284 124.447144,3.81610904 C124.389563,3.85775115 124.331615,3.89793213 124.2744,3.94213121 C123.03915,4.90172609 121.904025,6.44431047 120.923307,8.39820199 C120.069488,10.1044325 119.338901,12.1273623 118.805264,14.3544845 M128.035898,3.08773744 L128.299966,1.64597079 C128.354246,1.34826625 128.155829,1.06261601 127.857286,1.00891961 C127.558742,0.954857922 127.271935,1.15211001 127.217655,1.44981455 L127.217655,1.44944927 L126.953954,2.88975479 C126.181189,2.77505635 125.412092,2.71551545 124.65253,2.71551545 C121.20938,2.71588073 117.95878,3.85921227 115.364681,5.8368471 C112.770216,7.81338607 110.829685,10.628977 110.015476,13.9643637 C109.956061,14.2087371 110.07159,14.4629731 110.295681,14.579498 C110.519772,14.6960228 110.795209,14.6452487 110.962452,14.4567633 C111.760157,13.5578052 112.939659,13.0062299 114.212686,13.0065952 C114.476754,13.0065952 114.744122,13.029608 115.013691,13.078921 L115.113083,12.5401305 L115.014058,13.0792863 C116.76204,13.3959854 118.069175,14.6857949 118.464543,16.2510268 C118.517357,16.458872 118.687534,16.6177695 118.900255,16.6561241 C119.112242,16.6944787 119.327898,16.60535 119.450396,16.4292842 C120.525738,14.8826817 122.348539,13.9066492 124.336749,13.9073797 C124.5337,13.9073797 124.732117,13.9187035 124.931635,13.9380634 L124.413769,16.7660739 L122.33827,28.1077037 C119.821558,28.1219496 117.49006,28.3060516 115.557964,28.6176368 C114.550839,28.7798219 113.651909,28.9756128 112.884645,29.2024527 C112.117382,29.4300232 111.483619,29.6835287 110.993627,29.9859819 C110.735427,30.1459752 110.656207,30.4831302 110.816481,30.7402885 C110.976756,30.9974467 111.31601,31.0767129 111.573842,30.9167195 C111.931801,30.694263 112.490377,30.460848 113.197859,30.2530028 C115.325438,29.6225266 118.778123,29.1991652 122.653317,29.2009916 C125.238614,29.2009916 127.631728,29.38692 129.573726,29.6996011 C130.544175,29.8559416 131.401661,30.0440617 132.10951,30.253368 C132.816991,30.4612133 133.375201,30.6946283 133.733159,30.9174501 C133.991359,31.0770781 134.330246,30.9981773 134.49052,30.7413843 C134.650795,30.4845913 134.572308,30.1463405 134.314108,29.9867124 C133.823749,29.6842592 133.190353,29.4303885 132.422723,29.202818 C130.282674,28.5723419 127.085988,28.1657834 123.456523,28.112087 L125.496813,16.963326 L126.013213,14.1433517 C128.128688,14.7376649 129.691456,16.3956783 130.190251,18.3798882 C130.242697,18.5880987 130.412508,18.7473615 130.625229,18.7857161 C130.837217,18.8240707 131.052872,18.7356725 131.176103,18.5592415 C131.95657,17.4389227 133.279843,16.7310069 134.724147,16.7317374 C134.988948,16.7317374 135.25705,16.7547502 135.526986,16.8044285 L135.528086,16.8044285 C137.100756,17.0893481 138.314368,18.1629109 138.831134,19.51701 C138.920623,19.7526166 139.160851,19.8965376 139.411716,19.8665845 C139.66258,19.8362661 139.860998,19.6386487 139.891806,19.3891614 C139.964424,18.7977704 140,18.2085711 140,17.624851 C139.998166,10.7626701 135.08614,4.63762746 128.035898,3.08773744" id="Fill-1" transform="translate(125.000000, 16.000000) rotate(2.000000) translate(-125.000000, -16.000000) "></path>
                    </g>
                </g>
            </g>
        </g>
    </g>
</svg>