<svg width="30" height="31" xmlns="http://www.w3.org/2000/svg"><path d="M25.727 15.1h.001a5.462 5.462 0 0 0-4.232.8 30.53 30.53 0 0 0 .389-3.825c.089-2.588-.195-4.88-.834-6.64A7.917 7.917 0 0 0 20.363 4c5.255 2.271 8.626 7.447 8.472 13.013a5.478 5.478 0 0 0-3.108-1.912m-5.268.328a7.107 7.107 0 0 0-4.713-3.474 7.217 7.217 0 0 0-1.298-.164 7.11 7.11 0 0 0-4.442 1.36c.812-2.829 1.944-5.272 3.18-7.037.705-1.006 1.444-1.79 2.154-2.301.713-.513 1.382-.745 1.974-.723.124.004.245.019.366.045.47.103.897.366 1.296.813.598.668 1.098 1.756 1.414 3.148.319 1.39.46 3.08.395 4.942a29.089 29.089 0 0 1-.326 3.391M8.866 13.14a5.473 5.473 0 0 0-3.509-2.477 5.473 5.473 0 0 0-3.629.451A13.506 13.506 0 0 1 6.363 5.4a14.212 14.212 0 0 1 8.51-2.596c-.058.04-.118.078-.176.12-1.268.916-2.457 2.418-3.505 4.337-.913 1.675-1.713 3.671-2.325 5.878m9.619-10.937L18.799.77a.55.55 0 0 0-1.075-.234l-.314 1.43a15.682 15.682 0 0 0-2.294-.255 15.32 15.32 0 0 0-9.39 2.796c-2.663 1.885-4.7 4.63-5.63 7.936-.068.242.038.5.258.624s.497.083.67-.1a4.35 4.35 0 0 1 3.3-1.335c.264.01.53.041.798.1l.118-.535-.118.536c1.736.377 2.997 1.712 3.338 3.29a.55.55 0 0 0 .979.212c1.128-1.508 2.984-2.42 4.971-2.35.197.007.395.026.594.052l-.617 2.808-2.47 11.262c-2.515-.073-4.852.03-6.794.273a21.758 21.758 0 0 0-2.692.492c-.774.2-1.417.431-1.917.717a.546.546 0 0 0-.203.747.55.55 0 0 0 .75.203c.366-.21.932-.424 1.647-.607 2.148-.555 5.613-.858 9.486-.72 2.584.09 4.969.359 6.899.739.964.19 1.815.408 2.515.642.7.232 1.25.485 1.6.72a.551.551 0 0 0 .762-.15.547.547 0 0 0-.15-.76c-.48-.32-1.103-.595-1.863-.85-2.116-.704-5.297-1.222-8.922-1.402l2.428-11.07.614-2.801c2.094.668 3.598 2.38 4.027 4.38a.552.552 0 0 0 .979.214 4.325 4.325 0 0 1 3.61-1.703c.264.009.531.041.8.1a4.348 4.348 0 0 1 3.207 2.827.55.55 0 0 0 1.064-.091c.094-.589.15-1.176.17-1.76.238-6.858-4.457-13.15-11.45-14.945" fill="#413F47" fill-rule="evenodd"/></svg>