<svg width="29" height="28" xmlns="http://www.w3.org/2000/svg"><path d="M21.078 18.941l-3.166-2.774c.297-.405.516-.858.635-1.343h4.482c-.191 1.547-.891 2.964-1.95 4.117m-5.726 3.294v-4.327a4.063 4.063 0 0 0 1.391-.614l2.874 3.057a7.954 7.954 0 0 1-4.265 1.884m-5.97-1.883l2.873-3.058c.418.288.888.499 1.391.614v4.327a7.95 7.95 0 0 1-4.265-1.883m-3.411-5.528h4.481c.12.485.338.938.636 1.343L7.921 18.94c-1.059-1.153-1.76-2.57-1.95-4.117m1.95-5.765l3.167 2.774a3.798 3.798 0 0 0-.636 1.343H5.971c.19-1.548.892-2.964 1.95-4.117m5.726-3.294v4.327a4.06 4.06 0 0 0-1.391.614L9.382 7.649a7.952 7.952 0 0 1 4.265-1.884m5.97 1.884l-2.873 3.057a4.059 4.059 0 0 0-1.391-.614V5.765a7.953 7.953 0 0 1 4.265 1.884m-6.824 6.763c0-1.137.955-2.06 2.132-2.06 1.178 0 2.133.923 2.133 2.06s-.955 2.059-2.133 2.059c-1.177 0-2.132-.922-2.132-2.06m10.235-1.235h-4.481a3.786 3.786 0 0 0-.636-1.343l3.166-2.774c1.06 1.153 1.76 2.57 1.951 4.117m5.018-.096h-2.903a10.092 10.092 0 0 0-2.447-5.694l2.056-1.985a.899.899 0 0 0 0-1.301.977.977 0 0 0-1.347 0L21.35 6.085a10.844 10.844 0 0 0-5.897-2.363V.92c0-.508-.427-.92-.953-.92s-.953.412-.953.92v2.802A10.843 10.843 0 0 0 7.65 6.085L5.594 4.1a.977.977 0 0 0-1.347 0 .898.898 0 0 0 0 1.3l2.056 1.986a10.09 10.09 0 0 0-2.448 5.694H.953c-.526 0-.953.412-.953.92s.427.92.953.92h2.902a10.093 10.093 0 0 0 2.448 5.694l-2.056 1.985a.897.897 0 0 0 0 1.3c.186.18.43.27.674.27.243 0 .487-.09.673-.27l2.056-1.984a10.843 10.843 0 0 0 5.898 2.363v2.802c0 .508.426.92.952.92s.953-.412.953-.92v-2.802a10.847 10.847 0 0 0 5.898-2.363l2.055 1.985c.187.18.43.269.674.269.244 0 .487-.09.674-.27a.899.899 0 0 0 0-1.3l-2.057-1.985a10.09 10.09 0 0 0 2.448-5.694h2.903c.526 0 .952-.412.952-.92s-.426-.92-.953-.92" fill="#413F47" fill-rule="evenodd"/></svg>