<?xml version="1.0" encoding="UTF-8"?>
<svg width="29px" height="28px" viewBox="0 0 29 28" version="1.1" xmlns="http://www.w3.org/2000/svg" xmlns:xlink="http://www.w3.org/1999/xlink">
    <!-- Generator: Sketch 50.2 (55047) - http://www.bohemiancoding.com/sketch -->
    <title>Fill 1</title>
    <desc>Created with Sketch.</desc>
    <defs></defs>
    <g id="-" stroke="none" stroke-width="1" fill="none" fill-rule="evenodd">
        <g id="Homepage-(Fixed-Nav)" transform="translate(-60.000000, -1000.000000)" fill="#413F47">
            <g id="charters" transform="translate(0.000000, 940.000000)">
                <g id="Group-19">
                    <path d="M81.0782751,78.9411765 L77.9117647,76.1667374 C78.2093093,75.7623561 78.4279686,75.3091022 78.5473464,74.8235294 L83.0294118,74.8235294 C82.8380474,76.3714242 82.1379778,77.7876783 81.0782751,78.9411765 M75.3529412,82.2352941 L75.3529412,77.9082899 C75.856128,77.7927525 76.3252974,77.581658 76.7441208,77.2941176 L79.6176471,80.3510797 C78.4232246,81.3738314 76.9561179,82.0502606 75.3529412,82.2352941 M69.3823529,80.3516588 L72.255607,77.2941176 C72.6744305,77.581658 73.143872,77.7927525 73.6470588,77.9082899 L73.6470588,82.2352941 C72.04361,82.0505502 70.5770475,81.3744105 69.3823529,80.3516588 M65.9705882,74.8235294 L70.4524282,74.8235294 C70.571792,75.309365 70.7904257,75.7623561 71.0882353,76.1667374 L67.9214962,78.9411765 C66.8622177,77.787941 66.1619302,76.3714242 65.9705882,74.8235294 M67.9217961,69.0588235 L71.0882353,71.8332626 C70.7904257,72.2376439 70.571792,72.6908978 70.4521283,73.1764706 L65.9705882,73.1764706 C66.1619302,71.6283131 66.8625176,70.212059 67.9217961,69.0588235 M73.6470588,65.7647059 L73.6470588,70.0919637 C73.144112,70.2072182 72.6746406,70.4183252 72.2557904,70.7058824 L69.3823529,67.6487412 C70.5768516,66.6259295 72.0435076,65.9497502 73.6470588,65.7647059 M79.6176471,67.6486308 L76.7441208,70.7058824 C76.3252974,70.418342 75.8558559,70.2072475 75.3529412,70.0919997 L75.3529412,65.7647059 C76.9561179,65.9497394 78.4232246,66.625879 79.6176471,67.6486308 M72.7941176,74.4117647 C72.7941176,73.2747628 73.7488615,72.3529412 74.9264706,72.3529412 C76.1040797,72.3529412 77.0588235,73.2747628 77.0588235,74.4117647 C77.0588235,75.5487666 76.1040797,76.4705882 74.9264706,76.4705882 C73.7488615,76.4705882 72.7941176,75.5487666 72.7941176,74.4117647 M83.0294118,73.1764706 L78.5478717,73.1764706 C78.4285079,72.690635 78.2098742,72.2376439 77.9117647,71.8332626 L81.0782039,69.0588235 C82.1377823,70.212059 82.8377699,71.6283131 83.0294118,73.1764706 M88.04735,73.0802 L85.14445,73.0802 C84.94609,70.92448 84.05927,68.9572 82.69714,67.38612 L84.75324,65.40092 C85.12473,65.04196 85.12473,64.45956 84.75324,64.10004 C84.38117,63.74108 83.77797,63.74108 83.4059,64.10004 L81.3498,66.08524 C79.72261,64.77036 77.68507,63.91356 75.45265,63.72232 L75.45265,60.9198 C75.45265,60.4116 75.02606,60 74.5,60 C73.97394,60 73.54735,60.4116 73.54735,60.91952 L73.54735,63.72232 C71.31464,63.91384 69.27739,64.77008 67.6502,66.08524 L65.5941,64.10004 C65.22203,63.74108 64.61912,63.74108 64.24705,64.10004 C63.87498,64.459 63.87498,65.0414 64.24705,65.40092 L66.30315,67.38612 C64.94073,68.9572 64.05362,70.92448 63.85526,73.0802 L60.95265,73.0802 C60.42659,73.0802 60,73.49208 60,74 C60,74.50792 60.42659,74.9198 60.95265,74.9198 L63.85526,74.9198 C64.05362,77.07524 64.94073,79.0428 66.30286,80.61388 L64.24705,82.59908 C63.87498,82.95804 63.87498,83.54044 64.24705,83.89968 C64.43323,84.07944 64.67683,84.16904 64.92072,84.16904 C65.16432,84.16904 65.40821,84.07944 65.5941,83.89968 L67.6502,81.91476 C69.27768,83.22992 71.31493,84.08672 73.54764,84.27796 L73.54764,87.08048 C73.54764,87.58812 73.97423,88 74.50029,88 C75.02635,88 75.45294,87.58812 75.45294,87.08048 L75.45294,84.27796 C77.68536,84.08644 79.7229,83.22992 81.35067,81.91476 L83.40619,83.89968 C83.59266,84.07944 83.83597,84.16904 84.08015,84.16904 C84.32375,84.16904 84.56735,84.07944 84.75353,83.89968 C85.12502,83.54072 85.12502,82.95832 84.75353,82.5988 L82.69743,80.61388 C84.05956,79.0428 84.94667,77.07524 85.14474,74.9198 L88.04764,74.9198 C88.5737,74.9198 89,74.50792 89,74 C89,73.49208 88.5737,73.0802 88.04735,73.0802" id="Fill-1"></path>
                </g>
            </g>
        </g>
    </g>
</svg>