<svg width="31" height="30" xmlns="http://www.w3.org/2000/svg"><g fill="#413F47" fill-rule="evenodd"><path d="M15.394 0a.837.837 0 0 0-.843.843v2.53c0 .454.357.843.843.843a.837.837 0 0 0 .844-.843V.843C16.205.39 15.848 0 15.394 0M10.982 5.578c.162.162.39.26.584.26a.872.872 0 0 0 .584-.26.822.822 0 0 0 0-1.167l-1.784-1.817a.823.823 0 0 0-1.168 0 .822.822 0 0 0 0 1.168l1.784 1.816zM19.223 5.773a.813.813 0 0 0 .584-.26L21.59 3.73a.822.822 0 0 0 0-1.168.823.823 0 0 0-1.168 0L18.64 4.346a.822.822 0 0 0 0 1.167c.13.195.357.26.584.26M12.475 14.562c-.487-.584-1.168-1.168-2.207-1.59-2.563-1.005-3.893.811-6.423-.875l2.011-4.054 7.138 2.108-.52 4.41zm1.232-5.579l-7.85-2.335a.902.902 0 0 0-1.071.454l-2.466 5.06c-.714 1.427-.844 3.016-.39 4.475.52 1.752 1.817 3.081 3.44 3.762l-1.752 5.87a.465.465 0 0 1-.52.325l-2.562-.422a.465.465 0 0 0-.52.324c-.064.26.065.52.325.584l6.91 2.043c.26.065.52-.064.584-.324.065-.227-.032-.486-.26-.551l-2.368-1.006a.447.447 0 0 1-.26-.55l1.72-5.871c1.752.292 3.537-.13 4.932-1.297 1.168-.973 1.914-2.4 2.108-3.99l.65-5.578c.064-.421-.228-.843-.65-.973zM20.52 13.005a5.391 5.391 0 0 0-2.206 1.59l-.519-4.412 7.138-2.108 2.011 4.054c-2.498 1.687-3.828-.162-6.424.876m9.733 13.2l-2.563.421a.465.465 0 0 1-.519-.324l-1.752-5.87a5.918 5.918 0 0 0 3.44-3.762c.453-1.46.291-3.049-.39-4.476l-2.498-5.06a.902.902 0 0 0-1.07-.453l-7.852 2.335c-.422.13-.681.519-.649.973l.649 5.578c.195 1.59.94 2.984 2.109 3.99 1.362 1.167 3.18 1.588 4.931 1.296l1.72 5.87c.064.228-.033.487-.26.552l-2.368 1.038a.447.447 0 0 0-.26.551c.065.26.325.39.584.324l6.91-2.043c.26-.065.39-.324.325-.584-.033-.26-.26-.421-.487-.356"/></g></svg>